<svg width="64" height="64" viewBox="0 0 64 64" fill="none" xmlns="http://www.w3.org/2000/svg">
<rect width="64" height="64" rx="4" fill="#ECEBF0"/>
<g clip-path="url(#clip0_3076_15374)">
<path d="M29.5024 18.25C29.5024 19.9076 28.844 21.4973 27.6719 22.6694C26.4998 23.8415 24.91 24.5 23.2524 24.5C21.5948 24.5 20.0051 23.8415 18.833 22.6694C17.6609 21.4973 17.0024 19.9076 17.0024 18.25C17.0024 16.5924 17.6609 15.0027 18.833 13.8306C20.0051 12.6585 21.5948 12 23.2524 12C24.91 12 26.4998 12.6585 27.6719 13.8306C28.844 15.0027 29.5024 16.5924 29.5024 18.25ZM40.0649 28.3825C39.8305 28.2651 39.5651 28.2243 39.3062 28.266C39.0473 28.3078 38.8081 28.4298 38.6224 28.615L29.3474 40.39L22.6974 33.46C22.4573 33.3001 22.1694 33.2283 21.8823 33.2565C21.5952 33.2848 21.3268 33.4114 21.1224 33.615L12.0074 44.5V49.5C12.0074 50.163 12.2708 50.7989 12.7397 51.2678C13.2085 51.7366 13.8444 52 14.5074 52H49.5074C49.8358 52 50.1608 51.9353 50.4642 51.8097C50.7675 51.6841 51.0431 51.4999 51.2752 51.2678C51.5074 51.0356 51.6915 50.76 51.8171 50.4567C51.9428 50.1534 52.0074 49.8283 52.0074 49.5V38.25L40.0649 28.3825Z" fill="#909AA6"/>
</g>
<defs>
<clipPath id="clip0_3076_15374">
<rect width="40" height="40" fill="white" transform="translate(12 12)"/>
</clipPath>
</defs>
</svg>
