<svg width="20" height="20" viewBox="0 0 20 20" fill="none" xmlns="http://www.w3.org/2000/svg">
<path d="M13.1841 9.39698C13.3689 9.19173 13.3522 8.87558 13.147 8.69085C12.9417 8.50612 12.6256 8.52276 12.4409 8.72802L13.1841 9.39698ZM10 12.1875L9.62835 12.522C9.72317 12.6273 9.85826 12.6875 10 12.6875C10.1417 12.6875 10.2768 12.6273 10.3716 12.522L10 12.1875ZM7.55915 8.72802C7.37442 8.52276 7.05827 8.50612 6.85302 8.69085C6.64776 8.87558 6.63112 9.19173 6.81585 9.39698L7.55915 8.72802ZM17 10C17 13.866 13.866 17 10 17V18C14.4183 18 18 14.4183 18 10H17ZM10 17C6.13401 17 3 13.866 3 10H2C2 14.4183 5.58172 18 10 18V17ZM3 10C3 6.13401 6.13401 3 10 3V2C5.58172 2 2 5.58172 2 10H3ZM10 3C13.866 3 17 6.13401 17 10H18C18 5.58172 14.4183 2 10 2V3ZM12.4409 8.72802L9.62835 11.853L10.3716 12.522L13.1841 9.39698L12.4409 8.72802ZM10.3716 11.853L7.55915 8.72802L6.81585 9.39698L9.62835 12.522L10.3716 11.853Z" fill="#8897AE"/>
</svg>
