<svg width="25" height="24" viewBox="0 0 25 24" fill="none" xmlns="http://www.w3.org/2000/svg">
<path d="M11.97 3.84111C12.1106 3.70066 12.3013 3.62177 12.5 3.62177C12.6988 3.62177 12.8894 3.70066 13.03 3.84111L21.72 12.5311C21.7892 12.6027 21.872 12.6598 21.9635 12.6991C22.0551 12.7383 22.1535 12.759 22.2531 12.7598C22.3526 12.7606 22.4514 12.7416 22.5435 12.7038C22.6357 12.6661 22.7194 12.6104 22.7898 12.5399C22.8602 12.4694 22.9158 12.3857 22.9535 12.2935C22.9912 12.2013 23.0101 12.1025 23.0092 12.003C23.0083 11.9034 22.9875 11.805 22.9482 11.7135C22.9088 11.622 22.8517 11.5393 22.78 11.4701L14.091 2.78011C13.8821 2.57118 13.634 2.40544 13.361 2.29237C13.0881 2.17929 12.7955 2.12109 12.5 2.12109C12.2045 2.12109 11.9119 2.17929 11.639 2.29237C11.366 2.40544 11.1179 2.57118 10.909 2.78011L2.219 11.4701C2.1474 11.5393 2.09031 11.6221 2.05104 11.7136C2.01178 11.8052 1.99114 11.9036 1.99032 12.0032C1.9895 12.1028 2.00853 12.2015 2.04628 12.2937C2.08403 12.3858 2.13976 12.4695 2.21022 12.5399C2.28067 12.6103 2.36443 12.6659 2.45662 12.7036C2.54881 12.7413 2.64758 12.7602 2.74716 12.7593C2.84675 12.7584 2.94515 12.7377 3.03664 12.6983C3.12812 12.659 3.21085 12.6018 3.28 12.5301L11.97 3.84111Z" fill="#AFBACA"/>
<path d="M12.5 5.43164L20.659 13.5906C20.689 13.6206 20.719 13.6486 20.75 13.6766V19.8746C20.75 20.9096 19.91 21.7496 18.875 21.7496H15.5C15.3011 21.7496 15.1103 21.6706 14.9697 21.53C14.829 21.3893 14.75 21.1986 14.75 20.9996V16.4996C14.75 16.3007 14.671 16.11 14.5303 15.9693C14.3897 15.8287 14.1989 15.7496 14 15.7496H11C10.8011 15.7496 10.6103 15.8287 10.4697 15.9693C10.329 16.11 10.25 16.3007 10.25 16.4996V20.9996C10.25 21.1986 10.171 21.3893 10.0303 21.53C9.88968 21.6706 9.69891 21.7496 9.5 21.7496H6.125C5.62772 21.7496 5.15081 21.5521 4.79917 21.2005C4.44754 20.8488 4.25 20.3719 4.25 19.8746V13.6766C4.28111 13.6488 4.31146 13.6201 4.341 13.5906L12.5 5.43164Z" fill="#AFBACA"/>
</svg>
