<svg width="24" height="24" viewBox="0 0 24 24" fill="none" xmlns="http://www.w3.org/2000/svg">
<path d="M8.29203 12.7777C8.29923 13.0225 8.33763 13.2601 8.40003 13.4881C8.43603 13.6201 8.53443 13.6297 8.60883 13.5169L14.8872 4.02251C14.9616 3.90971 14.988 3.71291 14.9352 3.58571C14.3376 2.19131 12.8232 1.32491 11.3064 1.52891C9.66243 1.75451 8.32563 3.19931 8.28483 4.84811C8.25363 6.16331 8.28003 7.48091 8.28243 8.79851C8.28243 10.1257 8.24163 11.4529 8.29203 12.7777ZM12.7368 15.9025C14.2896 15.4321 15.264 14.0449 15.2664 12.2809C15.2688 11.2441 15.2712 10.2049 15.2712 9.16571C15.2712 9.02891 15.2112 9.00971 15.1344 9.12491L10.8144 15.6601C10.74 15.7729 10.7832 15.9025 10.9152 15.9361C11.4984 16.0849 12.1248 16.0873 12.7368 15.9025ZM6.84963 16.1761L7.87203 14.6281C7.94643 14.5153 7.95843 14.3233 7.90323 14.2009C7.68003 13.6897 7.55763 13.1209 7.55523 12.5257C7.55043 11.3857 7.55283 10.2457 7.55283 9.10811V8.94731C7.55283 8.85611 7.44243 8.78651 7.30563 8.78651H5.64963C5.51283 8.78651 5.40243 8.89691 5.40243 9.03371C5.39763 10.3249 5.36163 11.5969 5.41203 12.8689C5.46243 14.1025 5.86083 15.2113 6.56403 16.1881C6.64563 16.2961 6.77283 16.2913 6.84963 16.1761ZM18.144 8.87051C18.144 8.85611 18.1368 8.84171 18.132 8.82491C18.1224 8.80091 18.0048 8.78171 17.868 8.78171H16.2216C16.0848 8.78171 15.9744 8.85371 15.9744 8.94011V9.09851C15.9744 10.1929 15.9792 11.2849 15.972 12.3769C15.9696 12.6553 15.9528 12.9385 15.9144 13.2121C15.6432 15.1273 13.8744 16.7041 11.94 16.7641C11.4432 16.7785 10.9584 16.7065 10.512 16.5601C10.3824 16.5193 10.2192 16.5697 10.1448 16.6825L9.21123 18.0985C9.13683 18.2113 9.17523 18.3529 9.30003 18.4057C9.67443 18.5641 10.0656 18.6913 10.476 18.7849C10.5576 18.8017 10.6848 18.8833 10.6848 18.9409C10.6992 19.3249 10.6968 19.7113 10.6944 20.1097C10.6944 20.2465 10.584 20.3545 10.4472 20.3545H8.53203C8.39523 20.3545 8.28483 20.4649 8.28483 20.6017V22.2505C8.28483 22.3873 8.39523 22.4977 8.53203 22.4977H15.0072C15.144 22.4977 15.2544 22.3873 15.2544 22.2505V20.5897C15.2544 20.4529 15.144 20.3425 15.0072 20.3425H13.0896C12.9528 20.3425 12.8424 20.2321 12.8448 20.0953C12.8448 19.7209 12.8496 19.3609 12.8424 19.0009C12.84 18.8425 12.9144 18.8065 13.0536 18.7753C15.8568 18.1561 17.892 15.8761 18.0984 13.0081C18.192 11.6377 18.1344 10.2505 18.144 8.87051ZM18.504 2.21771L17.664 1.63931C17.5536 1.56251 17.4 1.59131 17.3232 1.70411L5.52243 19.5529C5.44803 19.6657 5.47923 19.8193 5.59203 19.8961L6.43923 20.4577C6.55203 20.5321 6.70563 20.5009 6.78243 20.3881L18.5736 2.56331C18.6432 2.45051 18.6144 2.29691 18.504 2.21771Z" fill="white"/>
</svg>
