<svg width="37" height="36" viewBox="0 0 37 36" fill="none" xmlns="http://www.w3.org/2000/svg">
<g clip-path="url(#clip0_662_30523)">
<path d="M18.5794 7.27532C18.7378 6.68492 18.871 6.09092 19.0546 5.51132C19.4362 4.30172 20.455 3.70052 21.6754 4.02812C26.0962 5.21612 30.5098 6.41852 34.9198 7.64252C36.1798 7.99172 36.7414 8.95292 36.403 10.2129C35.1322 14.9973 33.8254 19.7745 32.5366 24.5517C32.047 26.3553 31.561 28.1553 31.0822 29.9625C30.5854 31.8525 29.7502 32.3817 27.8962 31.8885C25.009 31.1253 22.1326 30.3333 19.2562 29.5413C18.745 29.3973 18.2806 29.4045 17.7694 29.5917C15.4438 30.4341 13.1002 31.2369 10.7638 32.0541C8.97458 32.6841 7.99898 32.2125 7.37978 30.4341C5.16218 24.0549 2.93738 17.6829 0.723375 11.3037C0.186975 9.75932 0.600976 8.84852 2.17058 8.29052C6.42217 6.78212 10.6846 5.29892 14.947 3.82652C16.1026 3.42692 17.1358 3.92012 17.5966 5.05772C17.8882 5.77772 18.1222 6.51572 18.385 7.24652L18.5794 7.27532ZM21.8626 28.3317C24.145 28.9725 26.3446 29.5881 28.5442 30.2037C29.1418 30.3693 29.203 29.9301 29.3146 29.5233C31.039 23.1729 32.7562 16.8189 34.5022 10.4757C34.711 9.72332 34.5382 9.40652 33.775 9.20492C30.3298 8.30132 26.9026 7.34012 23.4646 6.41132C22.6582 6.19172 21.6898 5.66252 21.0562 5.91812C20.3362 6.20972 20.5414 7.43012 20.2426 8.21492C20.0878 8.62892 20.0302 9.07532 19.879 9.48932C19.5838 10.2957 19.681 11.0373 19.9654 11.8473C21.517 16.2285 23.0218 20.6277 24.5302 25.0233C24.937 26.2041 24.469 27.1401 23.3134 27.6477C22.8598 27.8457 22.3342 27.8925 21.8626 28.3317Z" fill="#7D88F4"/>
</g>
<defs>
<clipPath id="clip0_662_30523">
<rect width="36" height="36" fill="white" transform="translate(0.5)"/>
</clipPath>
</defs>
</svg>
