<svg width="24" height="24" viewBox="0 0 24 24" fill="none" xmlns="http://www.w3.org/2000/svg">
<g clip-path="url(#clip0_262_214696)">
<path d="M15.9239 23.9831C14.9975 23.9999 13.7735 23.2175 12.9335 22.4927C10.7447 20.6087 9.27353 18.1823 7.88393 15.7079C6.28553 12.8591 4.81913 9.94554 3.99353 6.76074C3.64553 5.41914 3.44153 4.05834 3.79673 2.68314C4.06793 1.63194 4.66793 0.904742 5.81513 0.705542C6.88553 0.518342 7.93913 0.251942 9.00473 0.0383418C9.68393 -0.0984582 10.1135 0.124742 10.3751 0.767942C11.0591 2.43834 11.7311 4.11354 12.3911 5.79114C12.6503 6.44634 12.5063 6.88554 11.9279 7.28394C11.4047 7.64394 10.8407 7.95354 10.3415 8.34474C10.1615 8.48634 9.97193 8.82954 10.0223 9.02154C10.5767 11.2271 11.6183 13.1855 13.1015 14.9111C13.3295 15.1751 13.5599 15.2423 13.9031 15.0743C14.4527 14.8031 15.0287 14.5823 15.6023 14.3567C16.2983 14.0831 16.7423 14.2055 17.1479 14.8031C18.1391 16.2647 19.1231 17.7311 20.0975 19.2047C20.5511 19.8911 20.4863 20.3639 19.8815 20.9447C19.0991 21.6983 18.9695 21.9695 15.9239 23.9831Z" fill="white"/>
</g>
<defs>
<clipPath id="clip0_262_214696">
<rect width="24" height="24" fill="white"/>
</clipPath>
</defs>
</svg>
