<svg width="16" height="14" viewBox="0 0 16 14" fill="none" xmlns="http://www.w3.org/2000/svg">
<path d="M6.00007 7.12497H10.5001M6.00007 4.87497H10.5001M4.73336 11.157L2.42453 13.0979C2.34253 13.1668 2.24256 13.2109 2.13637 13.2249C2.03018 13.239 1.92218 13.2224 1.82508 13.1772C1.72797 13.132 1.6458 13.06 1.58823 12.9696C1.53065 12.8793 1.50007 12.7744 1.50007 12.6673V1.5C1.50007 1.35082 1.55933 1.20774 1.66482 1.10225C1.77031 0.996763 1.91338 0.9375 2.06257 0.9375H14.4376C14.5868 0.9375 14.7298 0.996763 14.8353 1.10225C14.9408 1.20774 15.0001 1.35082 15.0001 1.5V10.5C15.0001 10.6492 14.9408 10.7923 14.8353 10.8977C14.7298 11.0032 14.5868 11.0625 14.4376 11.0625H4.99256L4.73336 11.157Z" stroke="#3D4A5C" stroke-width="1.5" stroke-linecap="round" stroke-linejoin="round"/>
</svg>
