<svg width="36" height="36" viewBox="0 0 36 36" fill="none" xmlns="http://www.w3.org/2000/svg">
<path fill-rule="evenodd" clip-rule="evenodd" d="M11.2499 9V10.125H8.26942C6.82942 10.125 5.62342 11.211 5.47192 12.6435L3.57742 30.6435C3.53622 31.0355 3.57787 31.4318 3.69969 31.8067C3.82151 32.1816 4.02077 32.5267 4.28455 32.8196C4.54833 33.1125 4.87073 33.3467 5.23084 33.507C5.59096 33.6673 5.98074 33.7501 6.37492 33.75H29.6249C30.0191 33.7501 30.4089 33.6673 30.769 33.507C31.1291 33.3467 31.4515 33.1125 31.7153 32.8196C31.9791 32.5267 32.1783 32.1816 32.3001 31.8067C32.422 31.4318 32.4636 31.0355 32.4224 30.6435L30.5279 12.6435C30.4553 11.9522 30.1292 11.3123 29.6126 10.8473C29.096 10.3822 28.4255 10.1249 27.7304 10.125H24.7499V9C24.7499 7.20979 24.0388 5.4929 22.7729 4.22703C21.507 2.96116 19.7901 2.25 17.9999 2.25C16.2097 2.25 14.4928 2.96116 13.2269 4.22703C11.9611 5.4929 11.2499 7.20979 11.2499 9ZM17.9999 4.5C16.8064 4.5 15.6619 4.97411 14.8179 5.81802C13.974 6.66193 13.4999 7.80653 13.4999 9V10.125H22.4999V9C22.4999 7.80653 22.0258 6.66193 21.1819 5.81802C20.338 4.97411 19.1934 4.5 17.9999 4.5ZM13.4999 16.875C13.4999 18.0685 13.974 19.2131 14.8179 20.057C15.6619 20.9009 16.8064 21.375 17.9999 21.375C19.1934 21.375 20.338 20.9009 21.1819 20.057C22.0258 19.2131 22.4999 18.0685 22.4999 16.875V15.75C22.4999 15.4516 22.6184 15.1655 22.8294 14.9545C23.0404 14.7435 23.3266 14.625 23.6249 14.625C23.9233 14.625 24.2094 14.7435 24.4204 14.9545C24.6314 15.1655 24.7499 15.4516 24.7499 15.75V16.875C24.7499 18.6652 24.0388 20.3821 22.7729 21.648C21.507 22.9138 19.7901 23.625 17.9999 23.625C16.2097 23.625 14.4928 22.9138 13.2269 21.648C11.9611 20.3821 11.2499 18.6652 11.2499 16.875V15.75C11.2499 15.4516 11.3684 15.1655 11.5794 14.9545C11.7904 14.7435 12.0766 14.625 12.3749 14.625C12.6733 14.625 12.9594 14.7435 13.1704 14.9545C13.3814 15.1655 13.4999 15.4516 13.4999 15.75V16.875Z" fill="#1BC895"/>
</svg>
