<svg width="24" height="24" viewBox="0 0 24 24" fill="none" xmlns="http://www.w3.org/2000/svg">
<path d="M13.5 13.1247L15 11.9997V16.8747M8.625 11.9997H11.25L9.75 13.8747C9.99664 13.8747 10.2395 13.9355 10.457 14.0518C10.6745 14.168 10.86 14.3361 10.9971 14.5411C11.1341 14.7462 11.2185 14.9819 11.2427 15.2273C11.267 15.4728 11.2303 15.7204 11.136 15.9483C11.0417 16.1762 10.8926 16.3773 10.702 16.5338C10.5114 16.6904 10.2852 16.7975 10.0433 16.8457C9.80143 16.894 9.55139 16.8818 9.31534 16.8103C9.07928 16.7389 8.86449 16.6103 8.68999 16.436M3.75 8.25H20.25M16.5 2.25V5.25M7.5 2.25V5.25M4.5 3.75H19.5C19.9142 3.75 20.25 4.08579 20.25 4.5V19.5C20.25 19.9142 19.9142 20.25 19.5 20.25H4.5C4.08579 20.25 3.75 19.9142 3.75 19.5V4.5C3.75 4.08579 4.08579 3.75 4.5 3.75Z" stroke="#E82C4C" stroke-width="1.5" stroke-linecap="round" stroke-linejoin="round"/>
</svg>
