<svg width="22" height="22" viewBox="0 0 22 22" fill="none" xmlns="http://www.w3.org/2000/svg">
<circle cx="11" cy="11" r="9.75" fill="#FF0844" stroke="white" stroke-width="1.5"/>
<path d="M14.75 14.75H7.25C7.05109 14.75 6.86032 14.671 6.71967 14.5303C6.57902 14.3897 6.5 14.1989 6.5 14V8.75C6.5 8.55109 6.57902 8.36032 6.71967 8.21967C6.86032 8.07902 7.05109 8 7.25 8H8.74973L9.49973 6.875H12.4997L13.2497 8H14.75C14.9489 8 15.1397 8.07902 15.2803 8.21967C15.421 8.36032 15.5 8.55109 15.5 8.75V14C15.5 14.1989 15.421 14.3897 15.2803 14.5303C15.1397 14.671 14.9489 14.75 14.75 14.75Z" stroke="white" stroke-linecap="round" stroke-linejoin="round"/>
<path d="M11 12.875C11.932 12.875 12.6875 12.1195 12.6875 11.1875C12.6875 10.2555 11.932 9.5 11 9.5C10.068 9.5 9.3125 10.2555 9.3125 11.1875C9.3125 12.1195 10.068 12.875 11 12.875Z" stroke="white" stroke-linecap="round" stroke-linejoin="round"/>
</svg>
