<svg width="26" height="25" viewBox="0 0 26 25" fill="none" xmlns="http://www.w3.org/2000/svg">
<path fill-rule="evenodd" clip-rule="evenodd" d="M4.005 24.055C4.49837 24.1438 4.99871 24.1881 5.5 24.1875C7.08433 24.1896 8.63698 23.7437 9.97875 22.9013C10.9462 23.1288 11.9587 23.25 13 23.25C19.6525 23.25 25.1875 18.2875 25.1875 12C25.1875 5.7125 19.6525 0.75 13 0.75C6.3475 0.75 0.8125 5.7125 0.8125 12C0.8125 15.0112 2.09375 17.7337 4.155 19.74C4.445 20.0225 4.50125 20.275 4.4725 20.4188C4.31802 21.1963 3.96782 21.9217 3.455 22.5262C3.34854 22.6519 3.27707 22.8035 3.24779 22.9655C3.21851 23.1276 3.23245 23.2946 3.28821 23.4496C3.34397 23.6046 3.43958 23.7421 3.56542 23.8484C3.69125 23.9547 3.84287 24.0259 4.005 24.055ZM8.3125 10.5938C7.93954 10.5938 7.58185 10.7419 7.31813 11.0056C7.05441 11.2694 6.90625 11.627 6.90625 12C6.90625 12.373 7.05441 12.7306 7.31813 12.9944C7.58185 13.2581 7.93954 13.4062 8.3125 13.4062C8.68546 13.4062 9.04315 13.2581 9.30687 12.9944C9.57059 12.7306 9.71875 12.373 9.71875 12C9.71875 11.627 9.57059 11.2694 9.30687 11.0056C9.04315 10.7419 8.68546 10.5938 8.3125 10.5938ZM11.5938 12C11.5938 11.627 11.7419 11.2694 12.0056 11.0056C12.2694 10.7419 12.627 10.5938 13 10.5938C13.373 10.5938 13.7306 10.7419 13.9944 11.0056C14.2581 11.2694 14.4062 11.627 14.4062 12C14.4062 12.373 14.2581 12.7306 13.9944 12.9944C13.7306 13.2581 13.373 13.4062 13 13.4062C12.627 13.4062 12.2694 13.2581 12.0056 12.9944C11.7419 12.7306 11.5938 12.373 11.5938 12ZM17.6875 10.5938C17.3145 10.5938 16.9569 10.7419 16.6931 11.0056C16.4294 11.2694 16.2812 11.627 16.2812 12C16.2812 12.373 16.4294 12.7306 16.6931 12.9944C16.9569 13.2581 17.3145 13.4062 17.6875 13.4062C18.0605 13.4062 18.4181 13.2581 18.6819 12.9944C18.9456 12.7306 19.0938 12.373 19.0938 12C19.0938 11.627 18.9456 11.2694 18.6819 11.0056C18.4181 10.7419 18.0605 10.5938 17.6875 10.5938Z" fill="white"/>
</svg>
