<svg width="38" height="33" viewBox="0 0 38 33" fill="none" xmlns="http://www.w3.org/2000/svg">
<path d="M15.0389 32.3295C14.089 32.3311 13.1644 32.0238 12.4044 31.4539L12.3573 31.4186L2.43426 23.8278C1.97469 23.4755 1.58901 23.0361 1.29925 22.5347C1.00949 22.0333 0.821328 21.4798 0.745495 20.9057C0.669662 20.3316 0.707642 19.7481 0.857281 19.1887C1.00692 18.6293 1.26528 18.1048 1.61761 17.6452C1.96994 17.1857 2.40935 16.8 2.91073 16.5102C3.41212 16.2205 3.96566 16.0323 4.53976 15.9565C5.11386 15.8806 5.69729 15.9186 6.25671 16.0683C6.81613 16.2179 7.34061 16.4763 7.80018 16.8286L14.2275 21.7574L29.4156 1.94283C29.7678 1.48345 30.207 1.09792 30.7082 0.80828C31.2093 0.51864 31.7627 0.330553 32.3365 0.254753C32.9104 0.178952 33.4936 0.216927 34.0528 0.366508C34.612 0.516088 35.1362 0.774344 35.5956 1.12653L35.5969 1.12749L35.5026 1.25838L35.5994 1.12749C36.5262 1.83978 37.1326 2.89065 37.2854 4.04949C37.4383 5.20834 37.1252 6.3805 36.4148 7.30874L18.5503 30.6046C18.137 31.1414 17.6056 31.5757 16.9973 31.8739C16.389 32.1722 15.7202 32.3263 15.0428 32.3243L15.0389 32.3295Z" fill="white"/>
</svg>
