<svg width="25" height="24" viewBox="0 0 25 24" fill="none" xmlns="http://www.w3.org/2000/svg">
<path d="M17.5834 10.5L22.8334 7.5V16.5L17.5834 13.5M2.58337 5.625H14.5834C15.379 5.625 16.1421 5.94107 16.7047 6.50368C17.2673 7.06629 17.5834 7.82935 17.5834 8.625V17.625C17.5834 17.8239 17.5044 18.0147 17.3637 18.1553C17.2231 18.296 17.0323 18.375 16.8334 18.375H4.83337C4.03772 18.375 3.27466 18.0589 2.71205 17.4963C2.14944 16.9337 1.83337 16.1706 1.83337 15.375V6.375C1.83337 6.17609 1.91239 5.98532 2.05304 5.84467C2.1937 5.70402 2.38446 5.625 2.58337 5.625Z" stroke="#3D4A5C" stroke-width="1.5" stroke-linecap="round" stroke-linejoin="round"/>
</svg>
