<svg width="20" height="20" viewBox="0 0 20 20" fill="none" xmlns="http://www.w3.org/2000/svg">
<path opacity="0.4" d="M11.3051 3.88243V4.06547C10.8144 4.05584 10.3237 4.05584 9.83306 4.05584V3.89206C9.83306 3.22733 9.27368 2.68784 8.60636 2.68784H7.63482C6.52589 2.68784 5.62305 1.80152 5.62305 0.722536C5.62305 0.32755 5.95671 0 6.35906 0C6.77123 0 7.09508 0.32755 7.09508 0.722536C7.09508 1.01155 7.34042 1.24276 7.63482 1.24276H8.60636C10.0882 1.2524 11.2953 2.43736 11.3051 3.88243Z" fill="url(#paint0_linear_226_3212)"/>
<path fill-rule="evenodd" clip-rule="evenodd" d="M13.164 4.08231C13.4791 4.08663 13.7949 4.09096 14.1119 4.0942C17.5172 4.0942 20 6.52192 20 9.87449V14.1808C20 17.5334 17.5172 19.9611 14.1119 19.9611C12.7478 19.99 11.3837 19.9996 10.0098 19.9996C8.63592 19.9996 7.25221 19.99 5.88813 19.9611C2.48283 19.9611 0 17.5334 0 14.1808V9.87449C0 6.52192 2.48283 4.0942 5.89794 4.0942C7.18351 4.07493 8.49853 4.05566 9.83317 4.05566C10.3238 4.05566 10.8145 4.05566 11.3052 4.0653C11.9238 4.0653 12.5425 4.07378 13.164 4.08231ZM8.85182 12.7454H7.82139V13.7666C7.82139 14.1615 7.48773 14.4891 7.08538 14.4891C6.67321 14.4891 6.34936 14.1615 6.34936 13.7666V12.7454H5.30913C4.90677 12.7454 4.57311 12.4275 4.57311 12.0228C4.57311 11.6278 4.90677 11.3003 5.30913 11.3003H6.34936V10.2887C6.34936 9.89376 6.67321 9.56621 7.08538 9.56621C7.48773 9.56621 7.82139 9.89376 7.82139 10.2887V11.3003H8.85182C9.25417 11.3003 9.58783 11.6278 9.58783 12.0228C9.58783 12.4275 9.25417 12.7454 8.85182 12.7454ZM13.0226 11.1173H13.1207C13.5231 11.1173 13.8567 10.7993 13.8567 10.3947C13.8567 9.99973 13.5231 9.67218 13.1207 9.67218H13.0226C12.6104 9.67218 12.2866 9.99973 12.2866 10.3947C12.2866 10.7993 12.6104 11.1173 13.0226 11.1173ZM14.7007 14.4313H14.7988C15.2012 14.4313 15.5348 14.1134 15.5348 13.7087C15.5348 13.3138 15.2012 12.9862 14.7988 12.9862H14.7007C14.2885 12.9862 13.9647 13.3138 13.9647 13.7087C13.9647 14.1134 14.2885 14.4313 14.7007 14.4313Z" fill="url(#paint1_linear_226_3212)"/>
<defs>
<linearGradient id="paint0_linear_226_3212" x1="11.3051" y1="4.06547" x2="11.3051" y2="0" gradientUnits="userSpaceOnUse">
<stop stop-color="#FFB199"/>
<stop offset="1" stop-color="#FF0844"/>
</linearGradient>
<linearGradient id="paint1_linear_226_3212" x1="20" y1="19.9996" x2="20" y2="4.05566" gradientUnits="userSpaceOnUse">
<stop stop-color="#FFB199"/>
<stop offset="1" stop-color="#FF0844"/>
</linearGradient>
</defs>
</svg>
