<svg width="25" height="24" viewBox="0 0 25 24" fill="none" xmlns="http://www.w3.org/2000/svg">
<path d="M14.7 4.70969C14.3013 4.82202 14.0692 5.23628 14.1815 5.63497C14.2938 6.03367 14.7081 6.26581 15.1068 6.15347L14.7 4.70969ZM16.2262 15L16.2256 14.25C15.8115 14.2503 15.476 14.5862 15.4762 15.0003C15.4763 15.4144 15.8121 15.75 16.2262 15.75L16.2262 15ZM22.3624 18.9364C22.6004 19.2754 23.0681 19.3572 23.4071 19.1192C23.7461 18.8812 23.828 18.4135 23.59 18.0745L22.3624 18.9364ZM1.21954 18.0746C0.981318 18.4134 1.0629 18.8813 1.40175 19.1195C1.74061 19.3577 2.20842 19.2761 2.44664 18.9373L1.21954 18.0746ZM14.72 18.9368C14.9582 19.2756 15.4261 19.3572 15.7649 19.1189C16.1037 18.8807 16.1853 18.4129 15.947 18.074L14.72 18.9368ZM12.7085 10.125C12.7085 12.4032 10.8617 14.25 8.58349 14.25V15.75C11.6901 15.75 14.2085 13.2316 14.2085 10.125H12.7085ZM8.58349 14.25C6.30531 14.25 4.45849 12.4032 4.45849 10.125H2.95849C2.95849 13.2316 5.47688 15.75 8.58349 15.75V14.25ZM4.45849 10.125C4.45849 7.84681 6.30531 5.99999 8.58349 5.99999V4.49999C5.47688 4.49999 2.95849 7.01839 2.95849 10.125H4.45849ZM8.58349 5.99999C10.8617 5.99999 12.7085 7.84681 12.7085 10.125H14.2085C14.2085 7.01838 11.6901 4.49999 8.58349 4.49999V5.99999ZM15.1068 6.15347C15.6741 5.99362 16.2692 5.9572 16.8518 6.04668L17.0795 4.56406C16.285 4.44205 15.4736 4.49171 14.7 4.70969L15.1068 6.15347ZM16.8518 6.04668C17.4345 6.13615 17.9911 6.34945 18.4844 6.67219L19.3057 5.417C18.6331 4.97691 17.874 4.68607 17.0795 4.56406L16.8518 6.04668ZM18.4844 6.67219C18.9777 6.99493 19.396 7.41963 19.7113 7.91768L20.9787 7.11533C20.5488 6.4362 19.9783 5.85709 19.3057 5.417L18.4844 6.67219ZM19.7113 7.91768C20.0266 8.41573 20.2316 8.97556 20.3123 9.55947L21.7981 9.35406C21.6881 8.55784 21.4087 7.79446 20.9787 7.11533L19.7113 7.91768ZM20.3123 9.55947C20.393 10.1434 20.3477 10.7378 20.1793 11.3027L21.6168 11.7311C21.8464 10.9608 21.9082 10.1503 21.7981 9.35406L20.3123 9.55947ZM20.1793 11.3027C20.0109 11.8676 19.7235 12.3899 19.3363 12.8344L20.4673 13.8197C20.9953 13.2136 21.3873 12.5014 21.6168 11.7311L20.1793 11.3027ZM19.3363 12.8344C18.9491 13.2788 18.4711 13.6352 17.9346 13.8793L18.556 15.2446C19.2876 14.9116 19.9393 14.4257 20.4673 13.8197L19.3363 12.8344ZM17.9346 13.8793C17.3981 14.1235 16.8155 14.2499 16.2261 14.25L16.2262 15.75C17.03 15.7499 17.8245 15.5776 18.556 15.2446L17.9346 13.8793ZM16.2267 15.75C17.4302 15.7491 18.6161 16.0382 19.6842 16.5929L20.3755 15.2617C19.0935 14.596 17.6701 14.2489 16.2256 14.25L16.2267 15.75ZM19.6842 16.5929C20.7522 17.1475 21.6708 17.9514 22.3624 18.9364L23.59 18.0745C22.76 16.8922 21.6574 15.9274 20.3755 15.2617L19.6842 16.5929ZM2.44664 18.9373C3.13882 17.9527 4.05772 17.1491 5.12577 16.5944L4.43438 15.2632C3.15276 15.9289 2.05012 16.8931 1.21954 18.0746L2.44664 18.9373ZM5.12577 16.5944C6.1938 16.0397 7.37996 15.75 8.58351 15.75L8.58346 14.25C7.13931 14.25 5.71602 14.5976 4.43438 15.2632L5.12577 16.5944ZM8.58351 15.75C9.78701 15.7499 10.9726 16.0395 12.0407 16.5941L12.732 15.2629C11.4503 14.5974 10.0277 14.2499 8.58346 14.25L8.58351 15.75ZM12.0407 16.5941C13.1088 17.1488 14.0278 17.9523 14.72 18.9368L15.947 18.074C15.1164 16.8927 14.0136 15.9285 12.732 15.2629L12.0407 16.5941Z" fill="#3D4A5C"/>
</svg>
