<svg width="25" height="24" viewBox="0 0 25 24" fill="none" xmlns="http://www.w3.org/2000/svg">
<path d="M20 12V18.75C20 18.9489 19.921 19.1397 19.7803 19.2803C19.6397 19.421 19.4489 19.5 19.25 19.5H5.75C5.55109 19.5 5.36032 19.421 5.21967 19.2803C5.07902 19.1397 5 18.9489 5 18.75V12M12.5 7.49999V19.5M12.5 7.49999C12.5 7.49999 15.682 7.49999 16.7426 6.43933C17.1642 6.01729 17.4009 5.44512 17.4007 4.8486C17.4006 4.25209 17.1635 3.68005 16.7417 3.25825C16.3199 2.83645 15.7479 2.59941 15.1514 2.59924C14.5549 2.59907 13.9827 2.83579 13.5607 3.25735C12.5 4.31801 12.5 7.49999 12.5 7.49999ZM12.5 7.49999C12.5 7.49999 9.31802 7.49999 8.25736 6.43933C7.8358 6.01729 7.59909 5.44512 7.59926 4.8486C7.59942 4.25209 7.83647 3.68005 8.25827 3.25825C8.68007 2.83645 9.2521 2.59941 9.84862 2.59924C10.4451 2.59907 11.0173 2.83579 11.4393 3.25735C12.5 4.31801 12.5 7.49999 12.5 7.49999ZM4.25 7.49999H20.75C21.1642 7.49999 21.5 7.83577 21.5 8.24999V11.25C21.5 11.6642 21.1642 12 20.75 12H4.25C3.83579 12 3.5 11.6642 3.5 11.25V8.24999C3.5 7.83577 3.83579 7.49999 4.25 7.49999Z" stroke="#3D4A5C" stroke-width="1.5" stroke-linecap="round" stroke-linejoin="round"/>
</svg>
