<svg width="22" height="22" viewBox="0 0 22 22" fill="none" xmlns="http://www.w3.org/2000/svg">
<path d="M16.2512 4.80319C18.0584 4.80319 18.872 3.92479 18.872 2.83519C18.872 1.75279 18.0584 0.867188 16.2512 0.867188C14.552 0.867188 13.2128 1.63039 12.308 2.51359C11.912 2.28319 11.456 2.13439 10.9568 2.13439C10.4816 2.13439 10.0472 2.26879 9.6632 2.48719C8.7584 1.61599 7.4264 0.867188 5.7464 0.867188C3.9344 0.867188 3.1256 1.75039 3.1256 2.83519C3.1256 3.92479 3.932 4.80319 5.7464 4.80319H10.1048V21.1448H11.8904V4.80319H16.2512ZM16.2512 2.18239C16.8464 2.18239 17.5568 2.29759 17.5568 2.83519C17.5568 3.37999 16.8464 3.49519 16.2512 3.49519H13.2656L13.2416 3.43519C13.9064 2.79199 14.9192 2.18239 16.2512 2.18239ZM8.6528 3.49519H5.7488C5.1536 3.49519 4.4336 3.37759 4.4336 2.83519C4.4336 2.29759 5.1512 2.18239 5.7488 2.18239C7.0568 2.18239 8.0432 2.76559 8.7104 3.39199L8.6528 3.49519ZM0.5 6.70399V9.33199H9.6896V5.39119H1.8152C1.088 5.39119 0.5 5.98159 0.5 6.70399ZM1.8152 19.8296C1.8152 20.552 2.4032 21.1424 3.128 21.1424H9.6896V10.64H1.8152V19.8296ZM20.1848 5.39119H12.368V9.33439H21.5V6.70399C21.5 5.98159 20.9096 5.39119 20.1848 5.39119ZM12.368 21.1424H18.872C19.5968 21.1424 20.1872 20.552 20.1872 19.8296V10.64H12.368V21.1424Z" fill="#FFDCDA"/>
</svg>
