<svg width="16" height="16" viewBox="0 0 16 16" fill="none" xmlns="http://www.w3.org/2000/svg">
<path d="M11.2483 9.87471C10.9188 10.4446 10.4452 10.9177 9.87508 11.2467C9.30492 11.5756 8.65826 11.7488 8.00002 11.7488C7.34177 11.7488 6.6951 11.5757 6.12494 11.2467C5.55478 10.9178 5.08119 10.4446 4.75171 9.87477M15.5 8C15.5 12.1421 12.1421 15.5 8 15.5C3.85786 15.5 0.5 12.1421 0.5 8C0.5 3.85786 3.85786 0.5 8 0.5C12.1421 0.5 15.5 3.85786 15.5 8ZM11.75 6.4375C11.75 6.95527 11.3303 7.375 10.8125 7.375C10.2947 7.375 9.875 6.95527 9.875 6.4375C9.875 5.91973 10.2947 5.5 10.8125 5.5C11.3303 5.5 11.75 5.91973 11.75 6.4375ZM6.125 6.4375C6.125 6.95527 5.70527 7.375 5.1875 7.375C4.66973 7.375 4.25 6.95527 4.25 6.4375C4.25 5.91973 4.66973 5.5 5.1875 5.5C5.70527 5.5 6.125 5.91973 6.125 6.4375Z" stroke="#5E718D" stroke-linecap="round" stroke-linejoin="round"/>
</svg>
