<svg width="20" height="20" viewBox="0 0 20 20" fill="none" xmlns="http://www.w3.org/2000/svg">
<path d="M2.5 13.125L6.43305 9.19194C6.49108 9.1339 6.55998 9.08787 6.63581 9.05646C6.71164 9.02505 6.79291 9.00888 6.87499 9.00888C6.95706 9.00888 7.03834 9.02505 7.11417 9.05646C7.18999 9.08787 7.25889 9.1339 7.31693 9.19194L10.808 12.6831C10.8661 12.7411 10.935 12.7871 11.0108 12.8185C11.0866 12.8499 11.1679 12.8661 11.25 12.8661C11.3321 12.8661 11.4133 12.8499 11.4892 12.8185C11.565 12.7871 11.6339 12.7411 11.6919 12.6831L13.308 11.0669C13.3661 11.0089 13.435 10.9629 13.5108 10.9315C13.5866 10.9 13.6679 10.8839 13.75 10.8839C13.8321 10.8839 13.9133 10.9 13.9892 10.9315C14.065 10.9629 14.1339 11.0089 14.1919 11.0669L17.5 14.375M3.125 3.75H16.875C17.2202 3.75 17.5 4.02982 17.5 4.375V15.625C17.5 15.9702 17.2202 16.25 16.875 16.25H3.125C2.77982 16.25 2.5 15.9702 2.5 15.625V4.375C2.5 4.02982 2.77982 3.75 3.125 3.75ZM13.125 7.8125C13.125 8.33027 12.7053 8.75 12.1875 8.75C11.6697 8.75 11.25 8.33027 11.25 7.8125C11.25 7.29473 11.6697 6.875 12.1875 6.875C12.7053 6.875 13.125 7.29473 13.125 7.8125Z" stroke="#5E718D" stroke-linecap="round" stroke-linejoin="round"/>
</svg>
