<svg width="25" height="24" viewBox="0 0 25 24" fill="none" xmlns="http://www.w3.org/2000/svg">
<path d="M3.64062 2.25L21.3594 21.75M9.05434 3.75H20C20.1989 3.75 20.3897 3.82902 20.5303 3.96967C20.671 4.11032 20.75 4.30109 20.75 4.5V10C20.75 12.1198 20.2658 13.8581 19.532 15.2753M17.7399 17.7638C15.7807 19.8001 13.4587 20.687 12.7303 20.9285C12.5811 20.9798 12.4189 20.9798 12.2697 20.9285C10.9349 20.486 4.25 17.8764 4.25 10V4.5C4.25 4.30109 4.32902 4.11032 4.46967 3.96967C4.61032 3.82902 4.80109 3.75 5 3.75" stroke="#3D4A5C" stroke-width="1.5" stroke-linecap="round" stroke-linejoin="round"/>
</svg>
