<svg width="21" height="20" viewBox="0 0 21 20" fill="none" xmlns="http://www.w3.org/2000/svg">
<path d="M7.66665 11.5H13.6666M7.66665 8.50004H13.6666M2.92557 14.5936C1.80738 12.7086 1.41578 10.4802 1.82431 8.32695C2.23283 6.17365 3.41338 4.24356 5.14427 2.89909C6.87515 1.55462 9.03731 0.888258 11.2247 1.02514C13.4122 1.16202 15.4744 2.09273 17.0242 3.6425C18.5739 5.19226 19.5046 7.25448 19.6415 9.4419C19.7784 11.6293 19.1121 13.7915 17.7676 15.5224C16.4232 17.2533 14.4931 18.4338 12.3398 18.8424C10.1865 19.2509 7.95812 18.8593 6.07311 17.7411L2.96471 18.6292C2.8361 18.6659 2.70001 18.6676 2.57053 18.634C2.44106 18.6005 2.32291 18.5329 2.22833 18.4384C2.13375 18.3438 2.06619 18.2256 2.03264 18.0961C1.99909 17.9667 2.00077 17.8306 2.03752 17.702L2.92557 14.5936Z" stroke="#3D4A5C" stroke-width="1.5" stroke-linecap="round" stroke-linejoin="round"/>
</svg>
