<svg width="24" height="24" viewBox="0 0 24 24" fill="none" xmlns="http://www.w3.org/2000/svg">
<path opacity="0.4" d="M16.6756 2H7.33333C3.92889 2 2 3.92889 2 7.33333V16.6667C2 20.0711 3.92889 22 7.33333 22H16.6756C20.08 22 22 20.0711 22 16.6667V7.33333C22 3.92889 20.08 2 16.6756 2Z" fill="url(#paint0_linear_161_23799)"/>
<path d="M7.36866 9.36914C6.91533 9.36914 6.54199 9.74247 6.54199 10.2047V17.0758C6.54199 17.5291 6.91533 17.9025 7.36866 17.9025C7.83088 17.9025 8.20421 17.5291 8.20421 17.0758V10.2047C8.20421 9.74247 7.83088 9.36914 7.36866 9.36914Z" fill="url(#paint1_linear_161_23799)"/>
<path d="M12.0352 6.08887C11.5818 6.08887 11.2085 6.4622 11.2085 6.92442V17.0755C11.2085 17.5289 11.5818 17.9022 12.0352 17.9022C12.4974 17.9022 12.8707 17.5289 12.8707 17.0755V6.92442C12.8707 6.4622 12.4974 6.08887 12.0352 6.08887Z" fill="url(#paint2_linear_161_23799)"/>
<path d="M16.6398 12.9961C16.1775 12.9961 15.8042 13.3694 15.8042 13.8316V17.0761C15.8042 17.5294 16.1775 17.9028 16.6309 17.9028C17.0931 17.9028 17.4664 17.5294 17.4664 17.0761V13.8316C17.4664 13.3694 17.0931 12.9961 16.6398 12.9961Z" fill="url(#paint3_linear_161_23799)"/>
<defs>
<linearGradient id="paint0_linear_161_23799" x1="22" y1="22" x2="22" y2="2" gradientUnits="userSpaceOnUse">
<stop stop-color="#FFB199"/>
<stop offset="1" stop-color="#FF0844"/>
</linearGradient>
<linearGradient id="paint1_linear_161_23799" x1="8.20421" y1="17.9025" x2="8.20421" y2="9.36914" gradientUnits="userSpaceOnUse">
<stop stop-color="#FFB199"/>
<stop offset="1" stop-color="#FF0844"/>
</linearGradient>
<linearGradient id="paint2_linear_161_23799" x1="12.8707" y1="17.9022" x2="12.8707" y2="6.08887" gradientUnits="userSpaceOnUse">
<stop stop-color="#FFB199"/>
<stop offset="1" stop-color="#FF0844"/>
</linearGradient>
<linearGradient id="paint3_linear_161_23799" x1="17.4664" y1="17.9028" x2="17.4664" y2="12.9961" gradientUnits="userSpaceOnUse">
<stop stop-color="#FFB199"/>
<stop offset="1" stop-color="#FF0844"/>
</linearGradient>
</defs>
</svg>
