<svg width="24" height="24" viewBox="0 0 24 24" fill="none" xmlns="http://www.w3.org/2000/svg">
<path d="M10.8 2.3999C10.1372 2.3999 9.59999 2.93716 9.59999 3.5999C9.59999 4.26264 10.1372 4.7999 10.8 4.7999H13.2C13.8627 4.7999 14.4 4.26264 14.4 3.5999C14.4 2.93716 13.8627 2.3999 13.2 2.3999H10.8Z" fill="#AFBACA"/>
<path fill-rule="evenodd" clip-rule="evenodd" d="M4.79999 5.9999C4.79999 4.67442 5.8745 3.5999 7.19999 3.5999C7.19999 5.58813 8.81176 7.1999 10.8 7.1999H13.2C15.1882 7.1999 16.8 5.58813 16.8 3.5999C18.1255 3.5999 19.2 4.67442 19.2 5.9999V19.1999C19.2 20.5254 18.1255 21.5999 16.8 21.5999H7.19999C5.8745 21.5999 4.79999 20.5254 4.79999 19.1999V5.9999ZM8.39999 10.7999C7.73725 10.7999 7.19999 11.3372 7.19999 11.9999C7.19999 12.6626 7.73725 13.1999 8.39999 13.1999H8.41199C9.07473 13.1999 9.61199 12.6626 9.61199 11.9999C9.61199 11.3372 9.07473 10.7999 8.41199 10.7999H8.39999ZM12 10.7999C11.3372 10.7999 10.8 11.3372 10.8 11.9999C10.8 12.6626 11.3372 13.1999 12 13.1999H15.6C16.2627 13.1999 16.8 12.6626 16.8 11.9999C16.8 11.3372 16.2627 10.7999 15.6 10.7999H12ZM8.39999 15.5999C7.73725 15.5999 7.19999 16.1372 7.19999 16.7999C7.19999 17.4626 7.73725 17.9999 8.39999 17.9999H8.41199C9.07473 17.9999 9.61199 17.4626 9.61199 16.7999C9.61199 16.1372 9.07473 15.5999 8.41199 15.5999H8.39999ZM12 15.5999C11.3372 15.5999 10.8 16.1372 10.8 16.7999C10.8 17.4626 11.3372 17.9999 12 17.9999H15.6C16.2627 17.9999 16.8 17.4626 16.8 16.7999C16.8 16.1372 16.2627 15.5999 15.6 15.5999H12Z" fill="#AFBACA"/>
</svg>
