<svg width="17" height="18" viewBox="0 0 17 18" fill="none" xmlns="http://www.w3.org/2000/svg">
<path d="M5.61676 6.875V4.0625C5.61676 3.31658 5.92048 2.60121 6.46112 2.07376C7.00175 1.54632 7.735 1.25 8.49957 1.25C9.26414 1.25 9.9974 1.54632 10.538 2.07376C11.0787 2.60121 11.3824 3.31658 11.3824 4.0625V6.875M2.09332 6.875H14.9058C15.2596 6.875 15.5464 7.15482 15.5464 7.5V16.25C15.5464 16.5952 15.2596 16.875 14.9058 16.875H2.09332C1.73952 16.875 1.4527 16.5952 1.4527 16.25V7.5C1.4527 7.15482 1.73952 6.875 2.09332 6.875Z" stroke="#5E718D" stroke-linecap="round" stroke-linejoin="round"/>
</svg>
