<svg width="29" height="28" viewBox="0 0 29 28" fill="none" xmlns="http://www.w3.org/2000/svg">
<path fill-rule="evenodd" clip-rule="evenodd" d="M7.5002 12.6V9.80005C7.5002 5.93406 10.6342 2.80005 14.5002 2.80005C18.3662 2.80005 21.5002 5.93406 21.5002 9.80005V12.6C23.0466 12.6 24.3002 13.8537 24.3002 15.4V22.4001C24.3002 23.9464 23.0466 25.2001 21.5002 25.2001H7.50019C5.9538 25.2001 4.7002 23.9464 4.7002 22.4001V15.4C4.7002 13.8537 5.9538 12.6 7.5002 12.6ZM18.7002 9.80005V12.6H10.3002V9.80005C10.3002 7.48045 12.1806 5.60005 14.5002 5.60005C16.8198 5.60005 18.7002 7.48045 18.7002 9.80005Z" fill="white"/>
</svg>
