<svg width="26" height="26" viewBox="0 0 26 26" fill="none" xmlns="http://www.w3.org/2000/svg">
<g filter="url(#filter0_dd_161_23863)">
<path opacity="0.4" fill-rule="evenodd" clip-rule="evenodd" d="M16.1021 12.9741C16.1021 13.7616 16.8354 14.4033 17.7346 14.4041H21.5462V11.5449H17.7346C16.8346 11.5449 16.1021 12.1866 16.1021 12.9741Z" fill="url(#paint0_linear_161_23863)"/>
<path fill-rule="evenodd" clip-rule="evenodd" d="M4.45361 19.2245V5.45312H5.70361V5.4587H18.3111V5.45312H19.5611V5.4587H21.5461V10.2937H17.7344C16.1453 10.2945 14.8519 11.4962 14.8519 12.9737C14.8536 14.4504 16.1461 15.652 17.7344 15.6529H21.5461V19.2287H4.66195V19.2245H4.45361ZM8.25773 10.307H14.0352V9.05705H8.25773V10.307Z" fill="url(#paint1_linear_161_23863)"/>
<path opacity="0.4" d="M19.561 5.45321V2.77132L4.45361 2.77051V5.45321H5.70361V4.02051L18.311 4.02132V5.45321H19.561Z" fill="url(#paint2_linear_161_23863)"/>
</g>
<defs>
<filter id="filter0_dd_161_23863" x="-1" y="-1" width="28" height="28" filterUnits="userSpaceOnUse" color-interpolation-filters="sRGB">
<feFlood flood-opacity="0" result="BackgroundImageFix"/>
<feColorMatrix in="SourceAlpha" type="matrix" values="0 0 0 0 0 0 0 0 0 0 0 0 0 0 0 0 0 0 127 0" result="hardAlpha"/>
<feOffset dy="1"/>
<feGaussianBlur stdDeviation="1"/>
<feColorMatrix type="matrix" values="0 0 0 0 0.176471 0 0 0 0 0.211765 0 0 0 0 0.262745 0 0 0 0.04 0"/>
<feBlend mode="normal" in2="BackgroundImageFix" result="effect1_dropShadow_161_23863"/>
<feColorMatrix in="SourceAlpha" type="matrix" values="0 0 0 0 0 0 0 0 0 0 0 0 0 0 0 0 0 0 127 0" result="hardAlpha"/>
<feOffset dy="2"/>
<feGaussianBlur stdDeviation="2"/>
<feColorMatrix type="matrix" values="0 0 0 0 0.176471 0 0 0 0 0.211765 0 0 0 0 0.262745 0 0 0 0.08 0"/>
<feBlend mode="normal" in2="effect1_dropShadow_161_23863" result="effect2_dropShadow_161_23863"/>
<feBlend mode="normal" in="SourceGraphic" in2="effect2_dropShadow_161_23863" result="shape"/>
</filter>
<linearGradient id="paint0_linear_161_23863" x1="21.5462" y1="14.4041" x2="21.5462" y2="11.5449" gradientUnits="userSpaceOnUse">
<stop stop-color="#FFB199"/>
<stop offset="1" stop-color="#FF0844"/>
</linearGradient>
<linearGradient id="paint1_linear_161_23863" x1="21.5461" y1="19.2287" x2="21.5461" y2="5.45312" gradientUnits="userSpaceOnUse">
<stop stop-color="#FFB199"/>
<stop offset="1" stop-color="#FF0844"/>
</linearGradient>
<linearGradient id="paint2_linear_161_23863" x1="19.561" y1="5.45321" x2="19.561" y2="2.77051" gradientUnits="userSpaceOnUse">
<stop stop-color="#FFB199"/>
<stop offset="1" stop-color="#FF0844"/>
</linearGradient>
</defs>
</svg>
