<svg width="8" height="12" viewBox="0 0 8 12" fill="none" xmlns="http://www.w3.org/2000/svg">
<path d="M4.00009 9.29268V10.7561M4.00009 9.29268C4.8303 9.29268 5.63138 8.99417 6.2502 8.45423C6.86902 7.91429 7.26217 7.17079 7.35449 6.36586M4.00009 9.29268C3.16989 9.29268 2.3688 8.99417 1.74998 8.45423C1.13116 7.91429 0.73801 7.17078 0.645691 6.36585M4.00009 1.2439C4.49737 1.2439 4.97429 1.43662 5.32592 1.77968C5.67755 2.12273 5.87509 2.58801 5.87509 3.07316V5.99999C5.87509 6.48515 5.67755 6.95043 5.32592 7.29348C4.97429 7.63654 4.49737 7.82926 4.00009 7.82926C3.75386 7.82926 3.51004 7.78195 3.28256 7.69002C3.05507 7.59809 2.84838 7.46335 2.67427 7.29348C2.50016 7.12362 2.36205 6.92196 2.26782 6.70003C2.17359 6.47809 2.12509 6.24022 2.12509 6V3.07316C2.12509 2.58801 2.32264 2.12273 2.67427 1.77968C3.0259 1.43662 3.50281 1.2439 4.00009 1.2439Z" stroke="#F9FAFB" stroke-linecap="round" stroke-linejoin="round"/>
</svg>
