<svg width="20" height="4" viewBox="0 0 20 4" fill="none" xmlns="http://www.w3.org/2000/svg">
<path fill-rule="evenodd" clip-rule="evenodd" d="M0.625 2C0.625 1.50272 0.822544 1.02581 1.17417 0.674175C1.52581 0.322544 2.00272 0.125 2.5 0.125C2.99728 0.125 3.47419 0.322544 3.82583 0.674175C4.17746 1.02581 4.375 1.50272 4.375 2C4.375 2.49728 4.17746 2.97419 3.82583 3.32583C3.47419 3.67746 2.99728 3.875 2.5 3.875C2.00272 3.875 1.52581 3.67746 1.17417 3.32583C0.822544 2.97419 0.625 2.49728 0.625 2ZM8.125 2C8.125 1.50272 8.32254 1.02581 8.67417 0.674175C9.02581 0.322544 9.50272 0.125 10 0.125C10.4973 0.125 10.9742 0.322544 11.3258 0.674175C11.6775 1.02581 11.875 1.50272 11.875 2C11.875 2.49728 11.6775 2.97419 11.3258 3.32583C10.9742 3.67746 10.4973 3.875 10 3.875C9.50272 3.875 9.02581 3.67746 8.67417 3.32583C8.32254 2.97419 8.125 2.49728 8.125 2ZM15.625 2C15.625 1.50272 15.8225 1.02581 16.1742 0.674175C16.5258 0.322544 17.0027 0.125 17.5 0.125C17.9973 0.125 18.4742 0.322544 18.8258 0.674175C19.1775 1.02581 19.375 1.50272 19.375 2C19.375 2.49728 19.1775 2.97419 18.8258 3.32583C18.4742 3.67746 17.9973 3.875 17.5 3.875C17.0027 3.875 16.5258 3.67746 16.1742 3.32583C15.8225 2.97419 15.625 2.49728 15.625 2Z" fill="white"/>
</svg>
