<svg width="12" height="12" viewBox="0 0 12 12" fill="none" xmlns="http://www.w3.org/2000/svg">
<path d="M6 9.29268V10.7561M8.27001 8.43664C7.80979 8.8447 7.24297 9.12077 6.63209 9.23441C6.02122 9.34804 5.39003 9.29481 4.8082 9.08059C4.22637 8.86637 3.71652 8.4995 3.3349 8.02045C2.95328 7.5414 2.71474 6.9688 2.6456 6.36585M7.26105 7.35375C6.9163 7.66029 6.46646 7.82991 6 7.82926C5.50272 7.82926 5.02581 7.63654 4.67417 7.29348C4.32254 6.95043 4.125 6.48515 4.125 5.99999V3.9879M2.25 1.9756L9.75 10.0244M9.3544 6.36585C9.32215 6.65132 9.25151 6.93139 9.14431 7.19886M4.40433 2.11208C4.57226 1.84655 4.80705 1.62737 5.08636 1.4754C5.36567 1.32343 5.68019 1.24374 6 1.2439C6.24623 1.2439 6.49005 1.29121 6.71753 1.38314C6.94502 1.47507 7.15172 1.60981 7.32583 1.77968C7.49994 1.94954 7.63805 2.15119 7.73227 2.37313C7.8265 2.59507 7.875 2.83294 7.875 3.07316V5.83669" stroke="#F9FAFB" stroke-linecap="round" stroke-linejoin="round"/>
</svg>
