<svg width="24" height="24" viewBox="0 0 24 24" fill="none" xmlns="http://www.w3.org/2000/svg">
<path d="M17.8691 9.87974C18.4317 10.4423 18.7478 11.2054 18.7478 12.0011C18.7478 12.7967 18.4317 13.5598 17.8691 14.1224M7.49945 8.25106V15.7511M7.49945 8.25106L3 8.25106C2.80109 8.25106 2.61032 8.33008 2.46967 8.47073C2.32902 8.61139 2.25 8.80215 2.25 9.00106V15.0011C2.25 15.2 2.32902 15.3907 2.46967 15.5314C2.61032 15.672 2.80109 15.7511 3 15.7511L7.49945 15.7511M7.49945 8.25106L8.13963 7.75357M7.49945 15.7511L14.25 21.0011V14.475M20.5208 7.22809C21.7866 8.49396 22.4978 10.2108 22.4978 12.0011C22.4978 13.7913 21.7866 15.5082 20.5208 16.774M4.5 3.74997L19.5 20.25M10.5146 5.90632L14.25 3.0011V10.0152" stroke="#3D4A5C" stroke-width="1.5" stroke-linecap="round" stroke-linejoin="round"/>
</svg>
