<svg width="25" height="24" viewBox="0 0 25 24" fill="none" xmlns="http://www.w3.org/2000/svg">
<path d="M9.25002 13.5H15.25M9.25002 10.5H15.25M4.50895 16.5936C3.39076 14.7086 2.99916 12.4802 3.40768 10.3269C3.81621 8.17365 4.99675 6.24356 6.72764 4.89909C8.45853 3.55462 10.6207 2.88826 12.8081 3.02514C14.9955 3.16202 17.0578 4.09273 18.6075 5.6425C20.1573 7.19226 21.088 9.25448 21.2249 11.4419C21.3618 13.6293 20.6955 15.7915 19.351 17.5224C18.0065 19.2533 16.0764 20.4338 13.9232 20.8424C11.7699 21.2509 9.54149 20.8593 7.65649 19.7411L4.54808 20.6292C4.41947 20.6659 4.28338 20.6676 4.15391 20.634C4.02443 20.6005 3.90628 20.5329 3.8117 20.4384C3.71713 20.3438 3.64956 20.2256 3.61601 20.0961C3.58246 19.9667 3.58415 19.8306 3.62089 19.702L4.50895 16.5936Z" stroke="#D7DFE9" stroke-width="1.5" stroke-linecap="round" stroke-linejoin="round"/>
</svg>
