<svg width="24" height="24" viewBox="0 0 24 24" fill="none" xmlns="http://www.w3.org/2000/svg">
<path opacity="0.4" d="M16.3402 2H7.67024C4.28024 2 2.00024 4.38 2.00024 7.92V16.09C2.00024 19.62 4.28024 22 7.67024 22H16.3402C19.7302 22 22.0002 19.62 22.0002 16.09V7.92C22.0002 4.38 19.7302 2 16.3402 2Z" fill="url(#paint0_linear_161_23984)"/>
<path d="M10.8134 15.2485C10.5894 15.2485 10.3654 15.1635 10.1944 14.9925L7.82144 12.6195C7.47944 12.2775 7.47944 11.7235 7.82144 11.3825C8.16344 11.0405 8.71644 11.0395 9.05844 11.3815L10.8134 13.1365L14.9414 9.00845C15.2834 8.66645 15.8364 8.66645 16.1784 9.00845C16.5204 9.35045 16.5204 9.90445 16.1784 10.2465L11.4324 14.9925C11.2614 15.1635 11.0374 15.2485 10.8134 15.2485Z" fill="url(#paint1_linear_161_23984)"/>
<defs>
<linearGradient id="paint0_linear_161_23984" x1="22.0002" y1="22" x2="22.0002" y2="2" gradientUnits="userSpaceOnUse">
<stop stop-color="#FFB199"/>
<stop offset="1" stop-color="#FF0844"/>
</linearGradient>
<linearGradient id="paint1_linear_161_23984" x1="16.4349" y1="15.2485" x2="16.4349" y2="8.75195" gradientUnits="userSpaceOnUse">
<stop stop-color="#FFB199"/>
<stop offset="1" stop-color="#FF0844"/>
</linearGradient>
</defs>
</svg>
