<svg width="93" height="89" viewBox="0 0 93 89" fill="none" xmlns="http://www.w3.org/2000/svg">
<g clip-path="url(#clip0_671_30920)">
<path d="M58.7806 19.9933H34.2402C33.6809 19.994 33.1448 20.2165 32.7494 20.6119C32.3539 21.0074 32.1315 21.5435 32.1308 22.1027V76.6441L31.8496 76.7299L25.8294 78.5735C25.5441 78.6605 25.2359 78.6307 24.9725 78.4907C24.7091 78.3507 24.5121 78.1119 24.4246 77.8268L6.51735 19.3338C6.43021 19.0485 6.45991 18.7403 6.59993 18.4768C6.73995 18.2134 6.97883 18.0163 7.26408 17.929L16.5411 15.0883L43.4357 6.85615L52.7127 4.01552C52.8538 3.97207 53.0022 3.95689 53.1493 3.97084C53.2963 3.9848 53.4392 4.02761 53.5697 4.09684C53.7001 4.16607 53.8157 4.26035 53.9097 4.37428C54.0037 4.48822 54.0743 4.61958 54.1175 4.76084L58.6948 19.7121L58.7806 19.9933Z" fill="#F0F3F9"/>
<path d="M64.1356 19.7118L58.6189 1.69209C58.5271 1.39185 58.377 1.11263 58.1773 0.870404C57.9776 0.628174 57.7321 0.427676 57.4548 0.280365C57.1776 0.133055 56.874 0.0418178 56.5615 0.0118719C56.249 -0.018074 55.9336 0.0138578 55.6334 0.105839L42.5904 4.09818L15.6974 12.3318L2.65439 16.3255C2.04848 16.5116 1.54115 16.9304 1.24375 17.4902C0.946344 18.0499 0.883172 18.7047 1.0681 19.311L19.9231 80.8949C20.0733 81.3843 20.3765 81.8126 20.788 82.1171C21.1995 82.4216 21.6978 82.5861 22.2097 82.5866C22.4466 82.5867 22.6822 82.5512 22.9086 82.4812L31.8495 79.7446L32.1308 79.6574V79.3635L31.8495 79.4493L22.8256 82.2126C22.2908 82.3756 21.7132 82.3198 21.2194 82.0575C20.7256 81.7952 20.356 81.3478 20.1917 80.8133L1.33816 19.228C1.25675 18.9632 1.22837 18.685 1.25466 18.4092C1.28095 18.1334 1.36137 17.8655 1.49134 17.6208C1.62131 17.3762 1.79827 17.1595 2.01207 16.9834C2.22588 16.8072 2.47234 16.6749 2.73733 16.5941L15.7803 12.6004L42.6735 4.36819L55.7164 0.374436C55.9174 0.313095 56.1264 0.281819 56.3365 0.281623C56.7875 0.282635 57.2264 0.428036 57.5888 0.696526C57.9511 0.965017 58.218 1.34249 58.3503 1.77365L63.8417 19.7118L63.9289 19.993H64.2214L64.1356 19.7118Z" fill="#D7DFE9"/>
<path d="M18.2152 17.9747C17.9442 17.9745 17.6803 17.8875 17.4624 17.7263C17.2444 17.5652 17.0839 17.3385 17.0042 17.0794L15.1929 11.163C15.1443 11.0041 15.1274 10.8372 15.1432 10.6717C15.1591 10.5063 15.2074 10.3456 15.2854 10.1988C15.3633 10.052 15.4695 9.92201 15.5977 9.81625C15.7259 9.71049 15.8737 9.63102 16.0326 9.58239L40.7741 2.0078C41.095 1.90986 41.4417 1.94326 41.7381 2.10067C42.0344 2.25809 42.2562 2.52666 42.3548 2.84743L44.1661 8.76384C44.264 9.0848 44.2305 9.43148 44.0731 9.72782C43.9157 10.0242 43.6472 10.246 43.3265 10.3446L18.585 17.9192C18.4651 17.9559 18.3405 17.9747 18.2152 17.9747Z" fill="#D7DFE9"/>
<path d="M27.7035 6.32178C29.2568 6.32178 30.516 5.06258 30.516 3.50928C30.516 1.95598 29.2568 0.696777 27.7035 0.696777C26.1502 0.696777 24.891 1.95598 24.891 3.50928C24.891 5.06258 26.1502 6.32178 27.7035 6.32178Z" fill="#D7DFE9"/>
<path d="M27.7036 5.2902C28.6872 5.2902 29.4845 4.49283 29.4845 3.50923C29.4845 2.52564 28.6872 1.72827 27.7036 1.72827C26.72 1.72827 25.9226 2.52564 25.9226 3.50923C25.9226 4.49283 26.72 5.2902 27.7036 5.2902Z" fill="white"/>
<path d="M85.709 81.8682H38.1777C37.8608 81.8678 37.557 81.7417 37.3329 81.5177C37.1088 81.2936 36.9828 80.9898 36.9824 80.6729V23.7197C36.9828 23.4028 37.1088 23.099 37.3329 22.8749C37.557 22.6508 37.8608 22.5248 38.1777 22.5244H85.709C86.0259 22.5248 86.3297 22.6508 86.5538 22.8749C86.7779 23.099 86.9039 23.4028 86.9043 23.7197V80.6729C86.9039 80.9898 86.7779 81.2936 86.5538 81.5176C86.3297 81.7417 86.0259 81.8678 85.709 81.8682Z" fill="#F0F3F9"/>
<path d="M63.8417 19.7119H34.2401C33.6064 19.7128 32.9988 19.965 32.5507 20.4131C32.1025 20.8612 31.8504 21.4688 31.8495 22.1025V79.4494L32.1307 79.3636V22.1025C32.1314 21.5433 32.3539 21.0072 32.7493 20.6117C33.1447 20.2163 33.6809 19.9938 34.2401 19.9932H63.9289L63.8417 19.7119ZM89.6464 19.7119H34.2401C33.6064 19.7128 32.9988 19.965 32.5507 20.4131C32.1025 20.8612 31.8504 21.4688 31.8495 22.1025V86.5088C31.8504 87.1425 32.1025 87.7501 32.5507 88.1982C32.9988 88.6464 33.6064 88.8985 34.2401 88.8994H89.6464C90.2801 88.8985 90.8877 88.6464 91.3358 88.1982C91.7839 87.7501 92.0361 87.1425 92.037 86.5088V22.1025C92.0361 21.4688 91.7839 20.8612 91.3358 20.4131C90.8877 19.965 90.2801 19.7128 89.6464 19.7119ZM91.7557 86.5088C91.7551 87.068 91.5326 87.6042 91.1372 87.9996C90.7417 88.395 90.2056 88.6175 89.6464 88.6182H34.2401C33.6809 88.6175 33.1447 88.395 32.7493 87.9996C32.3539 87.6042 32.1314 87.068 32.1307 86.5088V22.1025C32.1314 21.5433 32.3539 21.0072 32.7493 20.6117C33.1447 20.2163 33.6809 19.9938 34.2401 19.9932H89.6464C90.2056 19.9938 90.7417 20.2163 91.1372 20.6117C91.5326 21.0072 91.7551 21.5433 91.7557 22.1025V86.5088Z" fill="#D7DFE9"/>
<path d="M74.8809 25.8994H49.0059C48.6703 25.899 48.3486 25.7656 48.1113 25.5283C47.8741 25.291 47.7406 24.9693 47.7402 24.6338V18.4463C47.7406 18.1107 47.8741 17.789 48.1113 17.5518C48.3486 17.3145 48.6703 17.181 49.0059 17.1807H74.8809C75.2164 17.181 75.5381 17.3145 75.7754 17.5518C76.0126 17.789 76.1461 18.1107 76.1465 18.4463V24.6338C76.1461 24.9693 76.0126 25.291 75.7754 25.5283C75.5381 25.7656 75.2164 25.899 74.8809 25.8994Z" fill="#D7DFE9"/>
<path d="M61.9432 17.6025C63.4965 17.6025 64.7557 16.3433 64.7557 14.79C64.7557 13.2367 63.4965 11.9775 61.9432 11.9775C60.3899 11.9775 59.1307 13.2367 59.1307 14.79C59.1307 16.3433 60.3899 17.6025 61.9432 17.6025Z" fill="#D7DFE9"/>
<path d="M61.9433 16.5033C62.8894 16.5033 63.6564 15.7363 63.6564 14.7902C63.6564 13.8441 62.8894 13.0771 61.9433 13.0771C60.9972 13.0771 60.2302 13.8441 60.2302 14.7902C60.2302 15.7363 60.9972 16.5033 61.9433 16.5033Z" fill="white"/>
</g>
<defs>
<clipPath id="clip0_671_30920">
<rect width="91.0738" height="88.8994" fill="white" transform="translate(0.963135)"/>
</clipPath>
</defs>
</svg>
