<svg width="30" height="30" viewBox="0 0 30 30" fill="none" xmlns="http://www.w3.org/2000/svg">
<g clip-path="url(#clip0_161_23653)">
<path d="M20.6792 2.21954C21.3062 2.20754 22.2962 2.38754 23.2412 2.76854C23.4332 2.84654 23.4482 2.78054 23.4602 2.61854C23.5172 1.81154 23.8202 1.12154 24.4712 0.617536C25.3472 -0.0664644 26.3192 -0.192464 27.3122 0.281536C28.3562 0.779536 28.8812 1.65554 28.8422 2.81654C28.7972 4.25654 27.7502 5.28254 26.2232 5.40854C26.0192 5.42654 25.9772 5.45054 26.0552 5.65454C26.8802 7.82054 26.7572 10.0045 26.0852 12.1735C25.4132 14.3395 24.2792 16.2595 22.6772 17.8435C21.1352 19.3675 20.4212 21.2425 19.9772 23.2825C19.7762 24.2005 19.5842 25.1185 19.2512 26.0005C18.8612 27.0295 18.0752 27.4945 17.0282 27.5995C15.7742 27.7255 14.5922 27.4195 13.4432 26.9545C11.5862 26.2045 9.96622 25.0765 8.45422 23.7835C6.48322 22.0945 4.71022 20.2195 3.27022 18.0505C2.38522 16.7155 1.66222 15.3025 1.30522 13.7275C1.14022 12.9985 1.08922 12.2635 1.19122 11.5195C1.34722 10.3855 2.01022 9.72554 3.08422 9.41354C4.14022 9.10454 5.22622 8.93954 6.29722 8.70854C7.15822 8.52254 8.01022 8.30954 8.82622 7.97054C9.62722 7.63454 10.2902 7.11554 10.9052 6.51554C12.0422 5.41154 13.2992 4.47254 14.6972 3.72554C16.4432 2.80154 18.2882 2.22554 20.6792 2.21954ZM22.2362 4.94054C21.6332 4.74554 21.0662 4.67354 20.4962 4.66154C18.9362 4.62554 17.6072 5.23454 16.4102 6.17954C15.1742 7.15754 14.0942 8.31254 12.9272 9.37154C11.6612 10.5205 10.3112 11.5525 8.75122 12.2785C7.52122 12.8515 6.24322 13.2535 4.86622 13.2265C4.58722 13.2205 4.52422 13.2925 4.56622 13.5535C4.72522 14.5615 5.31022 15.2725 6.09922 15.8605C6.37222 16.0645 6.64822 16.1455 6.97822 16.0735C7.34422 15.9955 7.71622 15.9295 8.07322 15.8095C9.89722 15.2005 11.3372 14.0635 12.5402 12.5905C14.0072 10.7935 15.4982 9.01754 17.2562 7.49354C18.6932 6.25754 20.1992 5.13554 22.2362 4.94054ZM26.1572 1.36754C25.4192 1.36754 24.8102 1.96454 24.8012 2.69654C24.7922 3.43754 25.4162 4.06754 26.1542 4.06754C26.8862 4.06754 27.4922 3.46454 27.5012 2.72654C27.5132 1.96754 26.9192 1.36754 26.1572 1.36754ZM7.06822 27.2995C7.06822 26.4865 7.39522 25.7965 8.02222 25.2355C8.15722 25.1155 8.24422 25.1395 8.37322 25.2415C9.57622 26.2015 10.8422 27.0595 12.2372 27.7165C12.3902 27.7885 12.4022 27.8725 12.3692 28.0165C11.9732 29.6125 10.0232 30.4855 8.57422 29.7115C7.62022 29.2075 7.11922 28.4065 7.06822 27.2995Z" fill="url(#paint0_linear_161_23653)"/>
</g>
<defs>
<linearGradient id="paint0_linear_161_23653" x1="28.8442" y1="29.9977" x2="28.8442" y2="-0.00195312" gradientUnits="userSpaceOnUse">
<stop stop-color="#FFB199"/>
<stop offset="1" stop-color="#FF0844"/>
</linearGradient>
<clipPath id="clip0_161_23653">
<rect width="30" height="30" fill="white"/>
</clipPath>
</defs>
</svg>
