<svg width="18" height="18" viewBox="0 0 18 18" fill="none" xmlns="http://www.w3.org/2000/svg">
<path d="M6 12H9M6 9H12M6 6H12M17.1821 11.9993H12V17.1818M11.6893 17.25H1.5C1.30109 17.25 1.11032 17.171 0.96967 17.0303C0.829018 16.8897 0.75 16.6989 0.75 16.5V1.5C0.75 1.30109 0.829018 1.11032 0.96967 0.96967C1.11032 0.829018 1.30109 0.75 1.5 0.75H16.5C16.6989 0.75 16.8897 0.829018 17.0303 0.96967C17.171 1.11032 17.25 1.30109 17.25 1.5V11.6893C17.25 11.7878 17.2306 11.8854 17.1929 11.9764C17.1552 12.0673 17.1 12.15 17.0303 12.2197L12.2197 17.0303C12.15 17.1 12.0673 17.1552 11.9764 17.1929C11.8854 17.2306 11.7878 17.25 11.6893 17.25Z" stroke="#E9EFF7" stroke-width="1.5" stroke-linecap="round" stroke-linejoin="round"/>
</svg>
