<svg width="16" height="10" viewBox="0 0 16 10" fill="none" xmlns="http://www.w3.org/2000/svg">
<path d="M10.5954 7.00026L10.595 6.50026C10.3189 6.50046 10.0953 6.72438 10.0954 7.00047C10.0955 7.27655 10.3193 7.50029 10.5954 7.50026L10.5954 7.00026ZM14.6862 9.6245C14.8448 9.85051 15.1567 9.90509 15.3827 9.74642C15.6087 9.58776 15.6633 9.27592 15.5046 9.04991L14.6862 9.6245ZM0.590966 9.04999C0.432151 9.27589 0.486536 9.58777 0.712439 9.74658C0.938343 9.9054 1.25022 9.85101 1.40903 9.62511L0.590966 9.04999ZM9.59127 9.6248C9.7501 9.85069 10.062 9.90505 10.2879 9.74622C10.5138 9.58739 10.5681 9.27551 10.4093 9.04961L9.59127 9.6248ZM9.57793 0.140055C9.31213 0.214943 9.15737 0.49112 9.23226 0.756914C9.30715 1.02271 9.58332 1.17747 9.84912 1.10258L9.57793 0.140055ZM10.5957 7.50026C11.398 7.49968 12.1887 7.69243 12.9007 8.0622L13.3616 7.17473C12.507 6.73091 11.558 6.49956 10.595 6.50026L10.5957 7.50026ZM12.9007 8.0622C13.6127 8.43196 14.2252 8.96786 14.6862 9.6245L15.5046 9.04991C14.9513 8.26176 14.2162 7.61855 13.3616 7.17473L12.9007 8.0622ZM1.40903 9.62511C1.87048 8.96873 2.48308 8.43302 3.19512 8.06319L2.73419 7.17575C1.87978 7.61953 1.14468 8.26236 0.590966 9.04999L1.40903 9.62511ZM3.19512 8.06319C3.90716 7.69337 4.69772 7.50029 5.50007 7.50026L5.50003 6.50026C4.53725 6.50029 3.5886 6.73198 2.73419 7.17575L3.19512 8.06319ZM5.50007 7.50026C6.30242 7.50023 7.093 7.69324 7.80506 8.06301L8.26593 7.17554C7.41148 6.73183 6.46282 6.50022 5.50003 6.50026L5.50007 7.50026ZM7.80506 8.06301C8.51713 8.43279 9.12977 8.96846 9.59127 9.6248L10.4093 9.04961C9.85552 8.26203 9.12037 7.61925 8.26593 7.17554L7.80506 8.06301ZM8.25026 3.75026C8.25026 5.269 7.01888 6.50026 5.50005 6.50026V7.50026C7.57108 7.50026 9.25026 5.82137 9.25026 3.75026H8.25026ZM5.50005 6.50026C3.98131 6.50026 2.75026 5.26908 2.75026 3.75026H1.75026C1.75026 5.82128 3.42894 7.50026 5.50005 7.50026V6.50026ZM2.75026 3.75026C2.75026 2.23147 3.98148 1.00026 5.50026 1.00026V0.000255585C3.42919 0.000255585 1.75026 1.67919 1.75026 3.75026H2.75026ZM5.50026 1.00026C7.01905 1.00026 8.25026 2.23147 8.25026 3.75026H9.25026C9.25026 1.67919 7.57133 0.000255585 5.50026 0.000255585V1.00026ZM9.84912 1.10258C10.2274 0.996009 10.6241 0.971731 11.0125 1.03138L11.1643 0.0429705C10.6346 -0.0383692 10.0937 -0.0052644 9.57793 0.140055L9.84912 1.10258ZM11.0125 1.03138C11.4009 1.09103 11.772 1.23323 12.1009 1.44839L12.6484 0.611597C12.2 0.318206 11.6939 0.12431 11.1643 0.0429705L11.0125 1.03138ZM12.1009 1.44839C12.4297 1.66355 12.7086 1.94668 12.9188 2.27872L13.7637 1.74382C13.4771 1.29106 13.0968 0.904989 12.6484 0.611597L12.1009 1.44839ZM12.9188 2.27872C13.129 2.61075 13.2656 2.98397 13.3195 3.37324L14.31 3.2363C14.2367 2.70549 14.0504 2.19657 13.7637 1.74382L12.9188 2.27872ZM13.3195 3.37324C13.3733 3.76252 13.343 4.1588 13.2308 4.53541L14.1892 4.82102C14.3422 4.30748 14.3834 3.76711 14.31 3.2363L13.3195 3.37324ZM13.2308 4.53541C13.1186 4.91202 12.9269 5.2602 12.6688 5.55651L13.4228 6.21337C13.7748 5.80933 14.0361 5.33456 14.1892 4.82102L13.2308 4.53541ZM12.6688 5.55651C12.4107 5.85281 12.092 6.09037 11.7344 6.25316L12.1486 7.16332C12.6363 6.94133 13.0708 6.61741 13.4228 6.21337L12.6688 5.55651ZM11.7344 6.25316C11.3767 6.41595 10.9883 6.50021 10.5953 6.50026L10.5954 7.50026C11.1313 7.50019 11.6609 7.3853 12.1486 7.16332L11.7344 6.25316Z" fill="#4A72FF"/>
</svg>
