<svg width="24" height="24" viewBox="0 0 24 24" fill="none" xmlns="http://www.w3.org/2000/svg">
<path d="M2.03927 19.7489C1.76299 20.2271 1.92669 20.8387 2.4049 21.115C2.88311 21.3913 3.49475 21.2276 3.77103 20.7494L2.03927 19.7489ZM20.2289 20.7495C20.5052 21.2278 21.1168 21.3915 21.5951 21.1152C22.0733 20.8389 22.237 20.2273 21.9607 19.7491L20.2289 20.7495ZM3.77103 20.7494C4.60533 19.3053 5.80496 18.1062 7.24941 17.2725L6.24967 15.5403C4.50124 16.5494 3.04915 18.0009 2.03927 19.7489L3.77103 20.7494ZM7.24941 17.2725C8.69386 16.4389 10.3323 16 12 16L12 14C9.98131 14 7.99811 14.5312 6.24967 15.5403L7.24941 17.2725ZM12 16C13.6678 16 15.3062 16.4389 16.7506 17.2726L17.7504 15.5404C16.002 14.5313 14.0188 14 12 14L12 16ZM16.7506 17.2726C18.1951 18.1063 19.3947 19.3054 20.2289 20.7495L21.9607 19.7491C20.9509 18.0011 19.4988 16.5496 17.7504 15.5404L16.7506 17.2726ZM16.9999 9C16.9999 11.7614 14.7614 14 12 14V16C15.8661 16 18.9999 12.866 18.9999 9H16.9999ZM12 14C9.23859 14 6.99993 11.7614 6.99993 9H4.99993C4.99993 12.866 8.13407 16 12 16V14ZM6.99993 9C6.99993 6.23858 9.23851 4 11.9999 4V2C8.13394 2 4.99993 5.13401 4.99993 9H6.99993ZM11.9999 4C14.7614 4 16.9999 6.23858 16.9999 9H18.9999C18.9999 5.13401 15.8659 2 11.9999 2V4Z" fill="#4A72FF"/>
</svg>
