<svg width="28" height="28" viewBox="0 0 28 28" fill="none" xmlns="http://www.w3.org/2000/svg">
<path fill-rule="evenodd" clip-rule="evenodd" d="M13.9999 27.6C17.6068 27.6 21.0661 26.1672 23.6166 23.6167C26.1671 21.0662 27.5999 17.607 27.5999 14C27.5999 10.3931 26.1671 6.93387 23.6166 4.38337C21.0661 1.83288 17.6068 0.400024 13.9999 0.400024C10.393 0.400024 6.93375 1.83288 4.38325 4.38337C1.83276 6.93387 0.399902 10.3931 0.399902 14C0.399902 17.607 1.83276 21.0662 4.38325 23.6167C6.93375 26.1672 10.393 27.6 13.9999 27.6ZM15.2749 8.47502C15.2749 8.13687 15.1406 7.81257 14.9015 7.57346C14.6624 7.33435 14.3381 7.20002 13.9999 7.20002C13.6618 7.20002 13.3375 7.33435 13.0983 7.57346C12.8592 7.81257 12.7249 8.13687 12.7249 8.47502V12.725H8.4749C8.13675 12.725 7.81245 12.8594 7.57334 13.0985C7.33423 13.3376 7.1999 13.6619 7.1999 14C7.1999 14.3382 7.33423 14.6625 7.57334 14.9016C7.81245 15.1407 8.13675 15.275 8.4749 15.275H12.7249V19.525C12.7249 19.8632 12.8592 20.1875 13.0983 20.4266C13.3375 20.6657 13.6618 20.8 13.9999 20.8C14.3381 20.8 14.6624 20.6657 14.9015 20.4266C15.1406 20.1875 15.2749 19.8632 15.2749 19.525V15.275H19.5249C19.8631 15.275 20.1874 15.1407 20.4265 14.9016C20.6656 14.6625 20.7999 14.3382 20.7999 14C20.7999 13.6619 20.6656 13.3376 20.4265 13.0985C20.1874 12.8594 19.8631 12.725 19.5249 12.725H15.2749V8.47502Z" fill="#FF0844"/>
</svg>
