<svg width="36" height="36" viewBox="0 0 36 36" fill="none" xmlns="http://www.w3.org/2000/svg">
<path d="M21 6H15C9.34313 6 6.51472 6 4.75735 7.75735C3.49204 9.02266 3.13777 10.8432 3.03857 13.875H32.9614C32.8623 10.8432 32.508 9.02266 31.2426 7.75735C29.4853 6 26.6568 6 21 6Z" fill="#FC8E28"/>
<path d="M15 30H21C26.6568 30 29.4853 30 31.2426 28.2426C33 26.4853 33 23.6568 33 18C33 17.3371 33 16.713 32.9971 16.125H3.00283C3 16.713 3 17.3371 3 18C3 23.6568 3 26.4853 4.75735 28.2426C6.51472 30 9.34314 30 15 30Z" fill="#FC8E28"/>
<path fill-rule="evenodd" clip-rule="evenodd" d="M7.875 24C7.875 23.3787 8.37868 22.875 9 22.875H15C15.6213 22.875 16.125 23.3787 16.125 24C16.125 24.6213 15.6213 25.125 15 25.125H9C8.37868 25.125 7.875 24.6213 7.875 24Z" fill="white"/>
<path fill-rule="evenodd" clip-rule="evenodd" d="M17.625 24C17.625 23.3787 18.1287 22.875 18.75 22.875H21C21.6213 22.875 22.125 23.3787 22.125 24C22.125 24.6213 21.6213 25.125 21 25.125H18.75C18.1287 25.125 17.625 24.6213 17.625 24Z" fill="white"/>
</svg>
