<svg width="24" height="24" viewBox="0 0 24 24" fill="none" xmlns="http://www.w3.org/2000/svg">
<path d="M5.99939 14.25V13.5C5.58518 13.5 5.24939 13.8358 5.24939 14.25H5.99939ZM17.9994 14.25H18.7494C18.7494 13.8358 18.4136 13.5 17.9994 13.5V14.25ZM17.9994 20.625V21.375C18.4136 21.375 18.7494 21.0392 18.7494 20.625H17.9994ZM5.99939 20.625H5.24939C5.24939 21.0392 5.58518 21.375 5.99939 21.375V20.625ZM5.99939 17.25C6.4136 17.25 6.74939 16.9142 6.74939 16.5C6.74939 16.0858 6.4136 15.75 5.99939 15.75V17.25ZM2.62439 16.5H1.87439C1.87439 16.9142 2.21018 17.25 2.62439 17.25V16.5ZM21.3744 16.5V17.25C21.7886 17.25 22.1244 16.9142 22.1244 16.5H21.3744ZM17.9994 15.75C17.5852 15.75 17.2494 16.0858 17.2494 16.5C17.2494 16.9142 17.5852 17.25 17.9994 17.25V15.75ZM5.24938 7.5C5.24938 7.91421 5.58516 8.25 5.99938 8.25C6.41359 8.25 6.74938 7.91421 6.74938 7.5H5.24938ZM5.99938 3.75V3C5.58516 3 5.24938 3.33579 5.24938 3.75H5.99938ZM17.9994 3.75H18.7494C18.7494 3.33579 18.4136 3 17.9994 3V3.75ZM17.2494 7.5C17.2494 7.91421 17.5852 8.25 17.9994 8.25C18.4136 8.25 18.7494 7.91421 18.7494 7.5H17.2494ZM5.99939 15H17.9994V13.5H5.99939V15ZM17.2494 14.25V20.625H18.7494V14.25H17.2494ZM17.9994 19.875H5.99939V21.375H17.9994V19.875ZM6.74939 20.625V14.25H5.24939V20.625H6.74939ZM5.99939 15.75H2.62439V17.25H5.99939V15.75ZM3.37439 16.5V9H1.87439V16.5H3.37439ZM3.37439 9C3.37439 8.64118 3.70849 8.25 4.24939 8.25V6.75C2.99537 6.75 1.87439 7.70197 1.87439 9H3.37439ZM4.24939 8.25H19.7494V6.75H4.24939V8.25ZM19.7494 8.25C20.2903 8.25 20.6244 8.64118 20.6244 9H22.1244C22.1244 7.70197 21.0034 6.75 19.7494 6.75V8.25ZM20.6244 9V16.5H22.1244V9H20.6244ZM21.3744 15.75H17.9994V17.25H21.3744V15.75ZM17.6249 12.75C18.6605 12.75 19.4999 11.9105 19.4999 10.875H17.9999C17.9999 11.0821 17.832 11.25 17.6249 11.25V12.75ZM19.4999 10.875C19.4999 9.83947 18.6605 9 17.6249 9V10.5C17.832 10.5 17.9999 10.6679 17.9999 10.875H19.4999ZM17.6249 9C16.5894 9 15.7499 9.83947 15.7499 10.875H17.2499C17.2499 10.6679 17.4178 10.5 17.6249 10.5V9ZM15.7499 10.875C15.7499 11.9105 16.5894 12.75 17.6249 12.75V11.25C17.4178 11.25 17.2499 11.0821 17.2499 10.875H15.7499ZM6.74938 7.5V3.75H5.24938V7.5H6.74938ZM5.99938 4.5H17.9994V3H5.99938V4.5ZM17.2494 3.75V7.5H18.7494V3.75H17.2494Z" fill="#3D4A5C"/>
</svg>
