<svg width="24" height="24" viewBox="0 0 24 24" fill="none" xmlns="http://www.w3.org/2000/svg">
<path d="M2.25576 19.8739C2.04855 20.2326 2.17132 20.6913 2.52998 20.8985C2.88864 21.1057 3.34737 20.983 3.55458 20.6243L2.25576 19.8739ZM20.4454 20.6245C20.6526 20.9831 21.1113 21.1059 21.47 20.8987C21.8287 20.6915 21.9515 20.2328 21.7443 19.8741L20.4454 20.6245ZM3.55458 20.6243C4.41082 19.1422 5.64201 17.9116 7.12446 17.056L6.37466 15.7568C4.66422 16.744 3.24368 18.1639 2.25576 19.8739L3.55458 20.6243ZM7.12446 17.056C8.60691 16.2004 10.2884 15.75 12 15.75L12.0001 14.25C10.0252 14.25 8.08509 14.7697 6.37466 15.7568L7.12446 17.056ZM12 15.75C13.7117 15.75 15.3932 16.2005 16.8756 17.0561L17.6254 15.757C15.915 14.7697 13.9749 14.25 12.0001 14.25L12 15.75ZM16.8756 17.0561C18.358 17.9117 19.5892 19.1424 20.4454 20.6245L21.7443 19.8741C20.7564 18.1641 19.3359 16.7442 17.6254 15.757L16.8756 17.0561ZM17.2499 9C17.2499 11.8995 14.8995 14.25 12.0001 14.25V15.75C15.728 15.75 18.7499 12.7279 18.7499 9H17.2499ZM12.0001 14.25C9.10054 14.25 6.74995 11.8995 6.74995 9H5.24995C5.24995 12.7279 8.27215 15.75 12.0001 15.75V14.25ZM6.74995 9C6.74995 6.1005 9.10045 3.75 11.9999 3.75V2.25C8.27203 2.25 5.24995 5.27208 5.24995 9H6.74995ZM11.9999 3.75C14.8994 3.75 17.2499 6.1005 17.2499 9H18.7499C18.7499 5.27208 15.7279 2.25 11.9999 2.25V3.75Z" fill="#3D4A5C"/>
</svg>
