<svg width="24" height="24" viewBox="0 0 24 24" fill="none" xmlns="http://www.w3.org/2000/svg">
<path opacity="0.4" d="M22 12C22 17.523 17.523 22 12 22C6.477 22 2 17.523 2 12C2 6.478 6.477 2 12 2C17.523 2 22 6.478 22 12Z" fill="url(#paint0_linear_161_23992)"/>
<path d="M15.86 8.70481L14.24 13.8248C14.18 14.0348 14.01 14.2048 13.8 14.2658L8.69996 15.8648C8.35996 15.9758 8.02996 15.6448 8.13996 15.3048L9.73996 10.1748C9.79996 9.96481 9.96996 9.80481 10.18 9.73481L15.3 8.13481C15.65 8.02481 15.97 8.35481 15.86 8.70481Z" fill="url(#paint1_linear_161_23992)"/>
<defs>
<linearGradient id="paint0_linear_161_23992" x1="22" y1="22" x2="22" y2="2" gradientUnits="userSpaceOnUse">
<stop stop-color="#FFB199"/>
<stop offset="1" stop-color="#FF0844"/>
</linearGradient>
<linearGradient id="paint1_linear_161_23992" x1="15.882" y1="15.8867" x2="15.882" y2="8.11328" gradientUnits="userSpaceOnUse">
<stop stop-color="#FFB199"/>
<stop offset="1" stop-color="#FF0844"/>
</linearGradient>
</defs>
</svg>
