<svg width="20" height="22" viewBox="0 0 20 22" fill="none" xmlns="http://www.w3.org/2000/svg">
<path d="M13.8091 8.37511L10.0591 1.87993C9.81026 1.44971 9.40077 1.13591 8.92064 1.00747C8.44052 0.879037 7.92904 0.946483 7.49861 1.19499C7.06819 1.44349 6.75404 1.85272 6.62521 2.33274C6.49637 2.81276 6.56339 3.3243 6.81153 3.75493L9.24903 7.9768L6.06153 2.45589C5.93853 2.24243 5.77467 2.05531 5.57931 1.90521C5.38396 1.75511 5.16093 1.64499 4.923 1.58112C4.68506 1.51726 4.43686 1.50092 4.19261 1.53302C3.94835 1.56513 3.71281 1.64505 3.49945 1.76823C3.2861 1.89141 3.09911 2.05543 2.94918 2.25092C2.79924 2.4464 2.6893 2.66951 2.62564 2.9075C2.56198 3.1455 2.54584 3.3937 2.57815 3.63793C2.61046 3.88217 2.69058 4.11764 2.81394 4.33089L6.37644 10.5013L4.68894 7.57848C4.44007 7.14827 4.03058 6.83446 3.55045 6.70603C3.07032 6.57759 2.55884 6.64504 2.12842 6.89354C1.698 7.14205 1.38385 7.55128 1.25501 8.0313C1.12618 8.51132 1.1932 9.02285 1.44134 9.45348L5.00384 15.6239C5.49618 16.4771 6.15177 17.225 6.93316 17.8247C7.71456 18.4245 8.60646 18.8645 9.55792 19.1196C10.5094 19.3746 11.5018 19.4398 12.4784 19.3113C13.455 19.1827 14.3968 18.8631 15.2499 18.3706C16.103 17.878 16.8507 17.2223 17.4503 16.4407C18.0499 15.6592 18.4897 14.7672 18.7445 13.8157C18.9994 12.8642 19.0643 11.8718 18.9355 10.8952C18.8068 9.91857 18.4869 8.97689 17.9942 8.12391L16.1192 4.87632C15.9962 4.66286 15.8324 4.47574 15.637 4.32564C15.4416 4.17554 15.2186 4.06542 14.9807 4.00156C14.7427 3.93769 14.4946 3.92135 14.2503 3.95345C14.006 3.98556 13.7705 4.06549 13.5571 4.18867C13.3438 4.31185 13.1568 4.47586 13.0069 4.67135C12.8569 4.86683 12.747 5.08994 12.6833 5.32794C12.6197 5.56593 12.6035 5.81413 12.6358 6.05837C12.6681 6.3026 12.7483 6.53807 12.8716 6.75132L13.8091 8.37511ZM13.8091 8.37511C12.9478 8.8724 12.3193 9.69147 12.0619 10.6521C11.8045 11.6128 11.9393 12.6364 12.4365 13.4977M5.60224 20.5003C4.33103 19.6182 3.27137 18.4652 2.49966 17.1241M14.4997 0.90625C15.3554 0.906136 16.196 1.13139 16.937 1.55936C17.6781 1.98733 18.2933 2.6029 18.7208 3.34416" stroke="#FFC700" stroke-width="1.5" stroke-linecap="round" stroke-linejoin="round"/>
</svg>
