<svg width="30" height="30" viewBox="0 0 30 30" fill="none" xmlns="http://www.w3.org/2000/svg">
<path fill-rule="evenodd" clip-rule="evenodd" d="M19.6875 5.62483C19.6875 4.7531 19.9911 3.90859 20.5462 3.23647C21.1013 2.56436 21.8733 2.10664 22.7293 1.942C23.5854 1.77737 24.472 1.91611 25.2368 2.33437C26.0017 2.75263 26.5969 3.42427 26.9202 4.23384C27.2434 5.0434 27.2746 5.9403 27.0082 6.77033C26.7419 7.60036 26.1946 8.31167 25.4607 8.78197C24.7267 9.25226 23.8518 9.45215 22.9864 9.34728C22.121 9.24241 21.3192 8.83932 20.7188 8.20733L10.1925 14.0561C10.3534 14.675 10.3534 15.3247 10.1925 15.9436L20.7188 21.7923C21.3479 21.1309 22.1965 20.7217 23.1058 20.6413C24.015 20.5609 24.9223 20.8149 25.6577 21.3557C26.393 21.8964 26.9059 22.6868 27.1001 23.5787C27.2944 24.4705 27.1567 25.4026 26.7128 26.2002C26.269 26.9978 25.5495 27.6061 24.6892 27.9112C23.8289 28.2162 22.8868 28.1969 22.0397 27.8571C21.1926 27.5172 20.4985 26.88 20.0876 26.065C19.6766 25.25 19.5771 24.313 19.8075 23.4298L9.2813 17.5823C8.76486 18.1261 8.09727 18.5025 7.36473 18.663C6.6322 18.8234 5.86838 18.7606 5.17192 18.4826C4.47546 18.2045 3.87835 17.7241 3.45772 17.1032C3.03709 16.4824 2.81226 15.7497 2.81226 14.9998C2.81226 14.2499 3.03709 13.5172 3.45772 12.8964C3.87835 12.2756 4.47546 11.7951 5.17192 11.5171C5.86838 11.2391 6.6322 11.1762 7.36473 11.3367C8.09727 11.4972 8.76486 11.8736 9.2813 12.4173L19.8075 6.56858C19.7276 6.26036 19.6873 5.94323 19.6875 5.62483Z" fill="white"/>
</svg>
