<svg width="17" height="16" viewBox="0 0 17 16" fill="none" xmlns="http://www.w3.org/2000/svg">
<path d="M1.10501 0.28794C0.981112 0.270379 0.85479 0.284097 0.737551 0.327845C0.620312 0.371593 0.515882 0.443981 0.433776 0.538413C0.35167 0.632845 0.294496 0.746321 0.267464 0.868502C0.240432 0.990682 0.244401 1.11769 0.279009 1.23794L1.69301 6.16394C1.78289 6.47696 1.97221 6.75222 2.23235 6.94814C2.4925 7.14406 2.80934 7.25 3.13501 7.24994H9.25001C9.44892 7.24994 9.63969 7.32896 9.78034 7.46961C9.92099 7.61026 10 7.80103 10 7.99994C10 8.19885 9.92099 8.38962 9.78034 8.53027C9.63969 8.67092 9.44892 8.74994 9.25001 8.74994H3.13501C2.80934 8.74988 2.4925 8.85582 2.23235 9.05174C1.97221 9.24766 1.78289 9.52292 1.69301 9.83594L0.279009 14.7619C0.244401 14.8822 0.240432 15.0092 0.267464 15.1314C0.294496 15.2536 0.35167 15.367 0.433776 15.4615C0.515882 15.5559 0.620312 15.6283 0.737551 15.672C0.85479 15.7158 0.981112 15.7295 1.10501 15.7119C6.8013 14.9026 12.1263 12.4112 16.398 8.55694C16.476 8.48662 16.5384 8.4007 16.581 8.30475C16.6237 8.2088 16.6458 8.10495 16.6458 7.99994C16.6458 7.89493 16.6237 7.79108 16.581 7.69513C16.5384 7.59918 16.476 7.51326 16.398 7.44294C12.1263 3.58868 6.8013 1.09731 1.10501 0.28794Z" fill="#FFDCDA"/>
</svg>
