<svg width="24" height="24" viewBox="0 0 24 24" fill="none" xmlns="http://www.w3.org/2000/svg">
<path d="M11.9999 16.5C14.4852 16.5 16.4999 14.4853 16.4999 12C16.4999 9.51475 14.4852 7.50003 11.9999 7.50003C9.51463 7.50003 7.49991 9.51475 7.49991 12C7.49991 14.4853 9.51463 16.5 11.9999 16.5Z" stroke="#3D4A5C" stroke-width="1.5" stroke-linecap="round" stroke-linejoin="round"/>
<path d="M11.5191 4.13946L9.75011 2.81309C9.6552 2.74169 9.54467 2.69387 9.42765 2.67356C9.31062 2.65326 9.19045 2.66106 9.07703 2.69631C8.52915 2.86788 7.9976 3.08781 7.48866 3.35349C7.38331 3.40875 7.29261 3.48828 7.22404 3.5855C7.15548 3.68272 7.11102 3.79486 7.09433 3.91265L6.78161 6.1018C6.66241 6.20746 6.54571 6.31736 6.43151 6.4315C6.31734 6.54566 6.20742 6.6624 6.10173 6.78169L3.91292 7.09473C3.79531 7.11136 3.68335 7.1557 3.58624 7.22409C3.48914 7.29248 3.40967 7.38297 3.3544 7.4881C3.08831 7.99683 2.86796 8.5282 2.69595 9.07594C2.66053 9.18951 2.65263 9.30988 2.67289 9.42711C2.69316 9.54434 2.74101 9.65507 2.81251 9.75016L4.13934 11.5192C4.12976 11.6783 4.12495 11.8385 4.12491 11.9999C4.12491 12.1614 4.12972 12.3217 4.13934 12.4808L2.81297 14.2498C2.74157 14.3447 2.69375 14.4553 2.67344 14.5723C2.65314 14.6893 2.66094 14.8095 2.69619 14.9229C2.86776 15.4708 3.08768 16.0023 3.35337 16.5113C3.40863 16.6166 3.48815 16.7073 3.58538 16.7759C3.6826 16.8445 3.79474 16.8889 3.91253 16.9056L6.10168 17.2183C6.20734 17.3375 6.31724 17.4542 6.43137 17.5684C6.54554 17.6826 6.66227 17.7925 6.78157 17.8982L7.09461 20.087C7.11123 20.2046 7.15557 20.3166 7.22396 20.4137C7.29235 20.5108 7.38284 20.5903 7.48797 20.6455C7.9967 20.9116 8.52807 21.132 9.07581 21.304C9.18938 21.3394 9.30975 21.3473 9.42698 21.327C9.54421 21.3068 9.65494 21.2589 9.75003 21.1874L11.5191 19.8606C11.6781 19.8702 11.8384 19.875 11.9998 19.875C12.1613 19.875 12.3215 19.8702 12.4806 19.8606L14.2497 21.187C14.3446 21.2584 14.4551 21.3062 14.5722 21.3265C14.6892 21.3468 14.8094 21.339 14.9228 21.3037C15.4707 21.1322 16.0022 20.9123 16.5112 20.6466C16.6165 20.5913 16.7072 20.5118 16.7758 20.4146C16.8443 20.3173 16.8888 20.2052 16.9055 20.0874L17.2182 17.8983C17.3374 17.7926 17.4541 17.6827 17.5683 17.5686C17.6825 17.4544 17.7924 17.3377 17.8981 17.2184L20.0869 16.9053C20.2045 16.8887 20.3165 16.8444 20.4136 16.776C20.5107 16.7076 20.5901 16.6171 20.6454 16.512C20.9115 16.0032 21.1319 15.4719 21.3039 14.9241C21.3393 14.8106 21.3472 14.6902 21.3269 14.573C21.3067 14.4557 21.2588 14.345 21.1873 14.2499L19.8605 12.4808C19.8701 12.3218 19.8749 12.1616 19.8749 12.0001C19.8749 11.8387 19.8701 11.6784 19.8605 11.5193L21.1868 9.75023C21.2582 9.65532 21.3061 9.54479 21.3264 9.42777C21.3467 9.31074 21.3389 9.19057 21.3036 9.07715C21.1321 8.52927 20.9121 7.99772 20.6464 7.48878C20.5912 7.38343 20.5117 7.29273 20.4144 7.22416C20.3172 7.1556 20.2051 7.11114 20.0873 7.09446L17.8981 6.78173C17.7925 6.66253 17.6826 6.54583 17.5684 6.43163C17.4543 6.31746 17.3375 6.20754 17.2182 6.10185L16.9052 3.91304C16.8886 3.79544 16.8442 3.68347 16.7759 3.58636C16.7075 3.48926 16.617 3.40979 16.5118 3.35452C16.0031 3.08843 15.4717 2.86808 14.924 2.69607C14.8104 2.66065 14.6901 2.65275 14.5728 2.67301C14.4556 2.69328 14.3449 2.74113 14.2498 2.81263L12.4807 4.13946C12.3217 4.12988 12.1615 4.12507 12 4.12503C11.8385 4.12503 11.6782 4.12983 11.5191 4.13946Z" stroke="#3D4A5C" stroke-width="1.5" stroke-linecap="round" stroke-linejoin="round"/>
</svg>
