<svg width="30" height="30" viewBox="0 0 30 30" fill="none" xmlns="http://www.w3.org/2000/svg">
<path d="M14.0625 3.75V8.8075C13.3583 8.13359 12.4194 7.76034 11.4447 7.76685C10.47 7.77337 9.53615 8.15913 8.84102 8.84239C8.14589 9.52566 7.74411 10.4527 7.72082 11.4272C7.69753 12.4016 8.05456 13.3468 8.71625 14.0625H1.875V6.5625C1.875 5.81658 2.17132 5.10121 2.69876 4.57376C3.22621 4.04632 3.94158 3.75 4.6875 3.75H14.0625ZM15.9375 3.75V8.76375C16.6495 8.10843 17.5873 7.75371 18.5547 7.77376C19.5222 7.7938 20.4445 8.18706 21.1287 8.8713C21.8129 9.55555 22.2062 10.4778 22.2262 11.4453C22.2463 12.4127 21.8916 13.3505 21.2362 14.0625H28.125V6.5625C28.125 5.81658 27.8287 5.10121 27.3012 4.57376C26.7738 4.04632 26.0584 3.75 25.3125 3.75H15.9375ZM28.125 15.9375H16.8962C17.0132 17.2186 17.6048 18.4097 18.5548 19.2769C19.5049 20.1442 20.7449 20.625 22.0312 20.625C22.2799 20.625 22.5183 20.7238 22.6942 20.8996C22.87 21.0754 22.9688 21.3139 22.9688 21.5625C22.9688 21.8111 22.87 22.0496 22.6942 22.2254C22.5183 22.4012 22.2799 22.5 22.0312 22.5C20.7956 22.5005 19.5817 22.1752 18.5119 21.557C17.4421 20.9388 16.5541 20.0495 15.9375 18.9787V26.25H25.3125C26.0584 26.25 26.7738 25.9537 27.3012 25.4262C27.8287 24.8988 28.125 24.1834 28.125 23.4375V15.9375ZM14.0625 26.25V18.9787C13.4459 20.0495 12.5579 20.9388 11.4881 21.557C10.4183 22.1752 9.20436 22.5005 7.96875 22.5C7.72011 22.5 7.48165 22.4012 7.30584 22.2254C7.13002 22.0496 7.03125 21.8111 7.03125 21.5625C7.03125 21.3139 7.13002 21.0754 7.30584 20.8996C7.48165 20.7238 7.72011 20.625 7.96875 20.625C9.25506 20.6247 10.4948 20.1438 11.4449 19.2766C12.3949 18.4094 12.9865 17.2185 13.1038 15.9375H1.875V23.4375C1.875 24.1834 2.17132 24.8988 2.69876 25.4262C3.22621 25.9537 3.94158 26.25 4.6875 26.25H14.0625Z" fill="white"/>
<path d="M13.8562 12.9426C13.8937 13.3138 13.9037 13.6613 13.9012 13.9488C13.5652 13.9519 13.2293 13.9369 12.895 13.9038C11.8537 13.7988 10.7987 13.4976 10.1512 12.8501C9.80983 12.4963 9.62106 12.0225 9.62557 11.5309C9.63007 11.0393 9.82748 10.5691 10.1753 10.2216C10.5231 9.87417 10.9935 9.6772 11.4851 9.67316C11.9767 9.66912 12.4503 9.85834 12.8037 10.2001C13.45 10.8463 13.7525 11.9001 13.8562 12.9426ZM16.0962 12.9426C16.0587 13.3138 16.0487 13.6613 16.0512 13.9488C16.3387 13.9513 16.6862 13.9413 17.0575 13.9038C18.0987 13.7988 19.1537 13.4976 19.8012 12.8501C20.1366 12.4953 20.3205 12.0236 20.3135 11.5354C20.3066 11.0472 20.1096 10.581 19.7642 10.2358C19.4189 9.89063 18.9526 9.69378 18.4644 9.6871C17.9762 9.68043 17.5046 9.86446 17.15 10.2001C16.5025 10.8476 16.2 11.9026 16.0962 12.9426Z" fill="white"/>
</svg>
