<svg width="25" height="24" viewBox="0 0 25 24" fill="none" xmlns="http://www.w3.org/2000/svg">
<path d="M15.75 12L16.166 12.624C16.3747 12.4849 16.5 12.2508 16.5 12C16.5 11.7492 16.3747 11.5151 16.166 11.376L15.75 12ZM11.25 9L11.666 8.37596C11.4359 8.22253 11.14 8.20823 10.8961 8.33874C10.6522 8.46926 10.5 8.7234 10.5 9H11.25ZM11.25 15H10.5C10.5 15.2766 10.6522 15.5307 10.8961 15.6613C11.14 15.7918 11.4359 15.7775 11.666 15.624L11.25 15ZM21 12C21 16.5563 17.3063 20.25 12.75 20.25V21.75C18.1348 21.75 22.5 17.3848 22.5 12H21ZM12.75 20.25C8.19365 20.25 4.5 16.5563 4.5 12H3C3 17.3848 7.36522 21.75 12.75 21.75V20.25ZM4.5 12C4.5 7.44365 8.19365 3.75 12.75 3.75V2.25C7.36522 2.25 3 6.61522 3 12H4.5ZM12.75 3.75C17.3063 3.75 21 7.44365 21 12H22.5C22.5 6.61522 18.1348 2.25 12.75 2.25V3.75ZM16.166 11.376L11.666 8.37596L10.834 9.62404L15.334 12.624L16.166 11.376ZM10.5 9V15H12V9H10.5ZM11.666 15.624L16.166 12.624L15.334 11.376L10.834 14.376L11.666 15.624Z" fill="#D7DFE9"/>
</svg>
